<svg width="412" height="327" viewBox="0 0 412 327" fill="none" xmlns="http://www.w3.org/2000/svg">
<path d="M324.51 53.1102C338.913 53.1102 350.59 41.4338 350.59 27.0302C350.59 12.6266 338.913 0.950195 324.51 0.950195C310.106 0.950195 298.43 12.6266 298.43 27.0302C298.43 41.4338 310.106 53.1102 324.51 53.1102Z" fill="#D9BD2E"/>
<path d="M156.31 65.01C170.741 65.01 182.44 53.3112 182.44 38.88C182.44 24.4488 170.741 12.75 156.31 12.75C141.878 12.75 130.18 24.4488 130.18 38.88C130.18 53.3112 141.878 65.01 156.31 65.01Z" fill="#3C5C98"/>
<path d="M331.22 88.14C321.96 85.4933 312.543 86.3633 302.97 90.75C294.94 94.43 288.45 99.96 281.61 105.86C267.19 118.29 249.6 126.65 230.72 126.75C213.54 126.84 197.19 119.22 183.14 108.41C182.976 108.285 182.839 108.128 182.736 107.949C182.633 107.77 182.567 107.573 182.541 107.368C182.515 107.164 182.53 106.956 182.584 106.757C182.639 106.558 182.733 106.372 182.86 106.21C188.09 99.55 193.34 92.86 200.22 87.95C201.43 87.09 202.46 87.19 203.74 88.02C212.08 93.44 220.16 97.99 230.06 98.2C241.38 98.43 252.51 91.67 261.37 84.71C268.8 78.88 276.26 72.15 284.15 67.53C295.163 61.07 307.073 57.6333 319.88 57.22C352.73 56.17 377.61 79.6 388.98 108.51C389.064 108.724 389.072 108.961 389.003 109.178C388.933 109.395 388.791 109.58 388.6 109.7C381.113 114.46 373.616 118.34 366.11 121.34C365.725 121.495 365.296 121.497 364.908 121.347C364.52 121.197 364.203 120.905 364.02 120.53C357.13 106.43 347.05 92.67 331.22 88.14Z" fill="#D9BD2E"/>
<path d="M120.6 128.31C119.96 129.724 119.297 131.114 118.61 132.48C118.428 132.846 118.11 133.126 117.722 133.262C117.334 133.398 116.907 133.38 116.53 133.21L93.5799 122.91C92.4799 122.417 92.1699 121.62 92.6499 120.52C101.77 99.5602 115.73 80.2202 137.95 72.2702C156.59 65.6002 179.81 69.1502 195.45 81.1202C196.397 81.8402 196.44 82.6102 195.58 83.4302L177.31 100.83C177.042 101.084 176.707 101.255 176.345 101.324C175.984 101.393 175.611 101.357 175.27 101.22C150.13 91.1002 130.59 106.27 120.6 128.31Z" fill="#3C5C98"/>
<path d="M218.95 203.17C218.676 204.517 218.933 204.627 219.72 203.5C230.48 188.18 244.59 173.65 262.06 166.87C273.35 162.5 289.35 162.59 300.24 168.62C319.99 179.57 316.08 208.09 312.62 226.25C312.604 226.324 312.607 226.401 312.626 226.474C312.645 226.548 312.681 226.616 312.731 226.674C312.781 226.731 312.844 226.777 312.915 226.808C312.986 226.838 313.062 226.853 313.14 226.85C316.933 226.73 320.936 226.683 325.15 226.71C332.18 226.77 337.41 224.74 337.85 216.87C338.29 209 337.9 201.1 339.9 192.92C343.29 179.04 352.25 168.02 366.37 165.47C378.06 163.37 389.68 165.37 398.28 173.79C412.15 187.4 413.16 212.23 407 228.9C400.55 246.37 385.32 253.03 367.44 250.43C359.59 249.29 352.42 244.78 348.08 238.14C348.03 238.064 347.962 238.001 347.881 237.959C347.801 237.916 347.71 237.895 347.619 237.897C347.527 237.899 347.437 237.924 347.357 237.97C347.276 238.016 347.209 238.082 347.16 238.16C342.06 246.69 334.31 249.1 324.95 249.1C281.363 249.093 237.78 249.137 194.2 249.23C186.57 249.25 179.18 248.98 171.99 246.21C161.816 242.297 155.263 235.54 152.33 225.94C151.31 222.58 150.806 217.607 150.82 211.02C150.906 181.887 150.916 152.367 150.85 122.46C150.85 121.94 151.11 121.677 151.63 121.67L172.32 121.6C172.385 121.6 172.449 121.613 172.509 121.638C172.57 121.662 172.624 121.699 172.67 121.744C172.715 121.79 172.751 121.844 172.775 121.903C172.799 121.963 172.811 122.026 172.81 122.09C172.756 153.243 172.76 184.297 172.82 215.25C172.84 223.22 179.06 226.28 186.06 226.58C190.1 226.753 194.233 226.803 198.46 226.73C198.575 226.727 198.684 226.679 198.764 226.595C198.845 226.511 198.89 226.398 198.89 226.28L198.85 172.19C198.85 172.103 198.867 172.018 198.9 171.938C198.933 171.857 198.982 171.785 199.043 171.723C199.104 171.662 199.177 171.614 199.257 171.58C199.337 171.547 199.423 171.53 199.51 171.53L220.42 171.52C220.534 171.52 220.643 171.566 220.724 171.649C220.804 171.731 220.85 171.843 220.85 171.96C220.803 178.467 220.773 185.007 220.76 191.58C220.75 195.45 219.72 199.34 218.95 203.17ZM372.3 184.46C358.97 186.19 358.2 204.15 359.88 214.45C360.98 221.24 364.42 227.53 371.71 228.71C389.52 231.59 390.55 210.44 388.68 198.99C387.25 190.21 381.96 183.2 372.3 184.46ZM278.82 185.95C266.15 184.68 252.35 193.95 242.74 202.92C235.34 209.82 228.726 217.547 222.9 226.1C222.858 226.164 222.833 226.238 222.829 226.314C222.825 226.39 222.841 226.465 222.876 226.532C222.911 226.599 222.964 226.655 223.028 226.693C223.092 226.731 223.165 226.751 223.24 226.75L288.48 226.74C288.625 226.74 288.767 226.692 288.881 226.603C288.995 226.514 289.076 226.39 289.11 226.25C290.576 220.23 291.686 214.247 292.44 208.3C293.82 197.43 292.15 187.29 278.82 185.95Z" fill="#3C5C98"/>
<path d="M109.23 226.2C109.29 219.62 109.28 212.99 109.2 206.31C109.16 203.01 108.736 199.833 107.93 196.78C105.32 186.87 98.3196 184.99 88.9796 185.02C83.4463 185.033 77.9663 185.047 72.5396 185.06C72.4362 185.06 72.337 185.018 72.2639 184.943C72.1907 184.868 72.1497 184.766 72.1497 184.66L72.1596 165.86C72.1596 165.44 72.3696 165.223 72.7896 165.21C82.623 164.977 89.913 165.02 94.6596 165.34C120.81 167.1 130.67 185.61 130.73 209.69C130.77 222.67 130.796 235.607 130.81 248.5C130.81 248.576 130.795 248.652 130.766 248.722C130.736 248.792 130.694 248.856 130.64 248.91C130.586 248.964 130.522 249.007 130.452 249.036C130.381 249.065 130.306 249.08 130.23 249.08L72.4496 249.14C72.3674 249.14 72.2886 249.107 72.2304 249.049C72.1723 248.991 72.1396 248.912 72.1396 248.83L72.1896 227.25C72.1896 226.91 72.3596 226.74 72.6996 226.74L108.66 226.76C108.809 226.76 108.953 226.701 109.059 226.597C109.166 226.492 109.227 226.35 109.23 226.2Z" fill="#3C5C98"/>
<path d="M52.11 233.6C52.15 259.16 43.18 285.23 15.59 290.08C11.6834 290.774 6.73335 291.08 0.740021 291C0.246687 291 0 290.754 0 290.26V272.33C0 272.256 0.0284667 272.185 0.0791016 272.132C0.129736 272.08 0.198411 272.05 0.27002 272.05C4.20002 271.97 8.41002 271.71 12.18 270.5C30.85 264.54 30.18 240.01 30.16 224.62C30.14 209.474 30.1367 193.794 30.15 177.58C30.15 177.495 30.1837 177.414 30.2437 177.354C30.3038 177.294 30.3851 177.26 30.47 177.26L51.48 177.24C51.9267 177.24 52.15 177.464 52.15 177.91C52.0967 197.21 52.0833 215.774 52.11 233.6Z" fill="#3C5C98"/>
<path d="M309.92 284.33C309.952 284.352 309.99 284.365 310.029 284.367C310.068 284.37 310.107 284.361 310.141 284.342C310.175 284.323 310.204 284.296 310.223 284.262C310.242 284.228 310.252 284.189 310.25 284.15L310.21 263.49C310.21 263.288 310.289 263.095 310.43 262.953C310.571 262.81 310.761 262.73 310.96 262.73L325.41 262.78C325.569 262.78 325.722 262.843 325.835 262.956C325.947 263.068 326.01 263.221 326.01 263.38C325.937 280.96 325.94 297.797 326.02 313.89C326.034 317.417 326.147 320.967 326.36 324.54C326.38 324.873 326.224 325.04 325.89 325.04L312.97 325.07C312.839 325.07 312.71 325.041 312.59 324.987C312.471 324.932 312.364 324.853 312.277 324.754C312.19 324.655 312.125 324.538 312.086 324.411C312.047 324.285 312.035 324.152 312.05 324.02C312.19 322.84 312.127 321.623 311.86 320.37C311.842 320.285 311.8 320.206 311.739 320.144C311.678 320.082 311.6 320.038 311.515 320.018C311.431 319.998 311.342 320.003 311.259 320.032C311.177 320.06 311.105 320.112 311.05 320.18C305.06 327.79 293.76 327.67 286.88 321.19C280.02 314.71 278.96 302.69 281.91 294.12C286.01 282.19 299.23 277.21 309.92 284.33ZM310.241 299.675C310.253 298.843 310.1 298.016 309.793 297.243C309.485 296.469 309.027 295.764 308.447 295.167C307.867 294.57 307.174 294.093 306.41 293.764C305.645 293.435 304.823 293.259 303.99 293.247L303.05 293.234C302.218 293.223 301.391 293.375 300.618 293.683C299.844 293.991 299.139 294.448 298.542 295.029C297.945 295.609 297.468 296.301 297.139 297.066C296.81 297.831 296.634 298.653 296.622 299.485L296.519 306.865C296.508 307.697 296.66 308.524 296.968 309.297C297.276 310.071 297.733 310.776 298.314 311.373C298.894 311.97 299.586 312.447 300.351 312.776C301.116 313.105 301.938 313.281 302.77 313.292L303.71 313.306C304.543 313.317 305.369 313.165 306.143 312.857C306.917 312.549 307.622 312.092 308.219 311.511C308.816 310.931 309.292 310.239 309.622 309.474C309.951 308.709 310.126 307.887 310.138 307.055L310.241 299.675Z" fill="#D9BD2E"/>
<path d="M103.64 301.73C103.913 302.883 104.18 302.883 104.44 301.73C107.013 290.383 110.017 278.847 113.45 267.12C113.549 266.788 113.752 266.497 114.03 266.29C114.307 266.083 114.644 265.971 114.99 265.97L133.63 266.01C133.878 266.01 134.116 266.105 134.295 266.277C134.474 266.448 134.58 266.682 134.59 266.93L137.46 324.48C137.464 324.545 137.455 324.609 137.432 324.67C137.41 324.731 137.376 324.787 137.331 324.835C137.286 324.883 137.232 324.921 137.172 324.948C137.111 324.974 137.046 324.989 136.98 324.99L122.91 325.1C122.47 325.107 122.243 324.89 122.23 324.45C121.657 310.343 121.29 296.14 121.13 281.84C121.13 281.687 121.07 281.573 120.95 281.5C120.917 281.487 120.88 281.48 120.84 281.48C120.733 281.493 120.663 281.557 120.63 281.67C116.977 295.31 113.113 309.04 109.04 322.86C108.84 323.54 108.38 323.883 107.66 323.89L97.24 323.9C96.7866 323.9 96.5066 323.68 96.4 323.24C92.8733 309.493 89.8033 295.95 87.19 282.61C87.1731 282.526 87.129 282.45 87.0642 282.392C86.9994 282.334 86.9173 282.299 86.83 282.29C86.55 282.263 86.4066 282.337 86.4 282.51C86 295.857 85.4633 309.903 84.79 324.65C84.7833 324.863 84.6733 324.97 84.46 324.97L71.44 325.11C70.6733 325.117 70.3133 324.74 70.36 323.98L73.89 266.28C73.8951 266.188 73.9352 266.101 74.0022 266.038C74.0692 265.975 74.1578 265.94 74.25 265.94L94.23 266C94.93 266.007 95.36 266.35 95.52 267.03L103.64 301.73Z" fill="#D9BD2E"/>
<path d="M170.91 322.05C170.898 321.982 170.868 321.918 170.825 321.865C170.781 321.811 170.725 321.77 170.662 321.745C170.598 321.719 170.53 321.711 170.463 321.721C170.396 321.731 170.333 321.758 170.28 321.8C165.42 325.547 160.284 326.82 154.87 325.62C145.43 323.54 141.62 313.32 146.04 305.07C149.93 297.81 160.5 295.77 168.06 295.77C169.154 295.77 169.514 295.26 169.14 294.24C169.034 293.96 168.87 293.72 168.65 293.52C167.75 292.727 166.634 292.233 165.3 292.04C160.647 291.36 155.927 292.077 151.14 294.19C150.38 294.517 149.887 294.287 149.66 293.5L147.35 285.42C147.3 285.241 147.317 285.049 147.396 284.882C147.475 284.715 147.611 284.583 147.78 284.51C154.14 281.757 160.704 280.617 167.47 281.09C179.29 281.93 185.17 288.75 185 300.32C184.9 307.193 184.947 313.83 185.14 320.23C185.18 321.617 185.367 323 185.7 324.38C185.72 324.459 185.721 324.542 185.704 324.622C185.688 324.702 185.653 324.777 185.603 324.841C185.553 324.906 185.489 324.958 185.415 324.994C185.342 325.03 185.262 325.049 185.18 325.05L172.18 325.08C171.974 325.081 171.774 325.008 171.615 324.874C171.455 324.741 171.348 324.555 171.31 324.35L170.91 322.05ZM162.84 306.48C159.09 308.05 158.12 314.78 163.41 314.94C169.25 315.11 170.49 310.84 169.58 306.04C169.553 305.885 169.473 305.744 169.352 305.64C169.232 305.536 169.08 305.476 168.92 305.47C166.654 305.397 164.627 305.733 162.84 306.48Z" fill="#D9BD2E"/>
<path d="M209.92 310.35C202.41 307.81 193.46 304.76 193.59 295.35C193.67 289.26 197.51 284.9 203.06 282.62C209.38 280.03 217.42 280.82 223.81 282.88C224.656 283.153 224.98 283.723 224.78 284.59L222.81 293.2C222.784 293.311 222.734 293.416 222.663 293.506C222.593 293.596 222.503 293.669 222.401 293.721C222.299 293.772 222.187 293.801 222.072 293.804C221.958 293.807 221.844 293.785 221.74 293.74C218.31 292.24 212.87 290.79 209.38 292.73C209.164 292.849 208.98 293.017 208.842 293.221C208.705 293.425 208.618 293.659 208.588 293.903C208.559 294.147 208.588 294.395 208.674 294.626C208.759 294.857 208.898 295.064 209.08 295.23C211.17 297.15 215.43 298.26 218.09 299.36C223.976 301.8 226.883 306 226.81 311.96C226.7 320.92 219.02 324.87 211.19 325.65C205.196 326.243 199.303 325.563 193.51 323.61C193.25 323.521 193.032 323.34 192.896 323.101C192.76 322.862 192.715 322.581 192.77 322.31L194.75 312.83C194.779 312.689 194.84 312.557 194.928 312.443C195.017 312.33 195.13 312.238 195.26 312.175C195.389 312.113 195.531 312.08 195.675 312.081C195.819 312.082 195.961 312.116 196.09 312.18C200.903 314.587 205.61 315.41 210.21 314.65C210.5 314.603 210.776 314.49 211.017 314.321C211.259 314.153 211.459 313.932 211.604 313.675C211.749 313.417 211.834 313.131 211.854 312.836C211.874 312.541 211.828 312.245 211.72 311.97C211.413 311.19 210.813 310.65 209.92 310.35Z" fill="#D9BD2E"/>
<path d="M258.68 322.58C258.513 321.833 258.123 321.693 257.51 322.16C250.03 327.85 239.53 327.59 233.89 319.73C232.85 318.27 232.21 316.43 231.97 314.21C230.43 299.97 244.6 295.79 255.8 295.81C255.982 295.81 256.16 295.761 256.316 295.667C256.472 295.574 256.599 295.44 256.684 295.28C256.77 295.119 256.81 294.939 256.8 294.757C256.791 294.576 256.732 294.4 256.63 294.25C255.857 293.103 254.773 292.397 253.38 292.13C248.413 291.19 243.507 291.917 238.66 294.31C238.531 294.374 238.39 294.409 238.245 294.412C238.101 294.416 237.958 294.387 237.827 294.329C237.695 294.271 237.578 294.184 237.483 294.075C237.389 293.967 237.319 293.838 237.28 293.7L235.07 286.05C234.958 285.668 234.993 285.257 235.169 284.9C235.345 284.542 235.649 284.264 236.02 284.12C246.69 279.98 265.57 277.73 271.16 291.19C272.24 293.79 272.72 297.863 272.6 303.41C272.45 310.59 272.51 317.62 273.2 324.71C273.204 324.758 273.198 324.807 273.183 324.853C273.168 324.899 273.144 324.942 273.112 324.977C273.08 325.013 273.041 325.042 272.997 325.061C272.954 325.08 272.907 325.09 272.86 325.09L259.91 325.01C259.45 325.01 259.17 324.787 259.07 324.34L258.68 322.58ZM253.98 314.59C257.47 313.24 257.87 309.38 257.31 306.1C257.243 305.727 257.027 305.527 256.66 305.5C251.9 305.14 246.66 306.73 247.38 312.68C247.425 313.034 247.599 313.361 247.87 313.6C249.617 315.16 251.653 315.49 253.98 314.59Z" fill="#D9BD2E"/>
<path d="M349.28 310.37C352.17 316.02 365.64 314.29 370.31 313.16C371.27 312.927 371.823 313.297 371.97 314.27L373.26 322.69C373.287 322.866 373.251 323.047 373.158 323.199C373.064 323.351 372.92 323.465 372.75 323.52C364.11 326.23 353.75 326.99 345.67 323.75C336.43 320.05 332.77 310.43 333.93 300.95C335.49 288.2 345.6 279.76 358.28 281.06C372.89 282.57 377.22 295.58 375.43 308.38C375.406 308.549 375.322 308.703 375.193 308.815C375.065 308.927 374.9 308.989 374.73 308.99L350.12 309C349.093 309 348.813 309.457 349.28 310.37ZM349.56 298.52L360.87 298.24C360.966 298.239 361.062 298.218 361.151 298.18C361.239 298.141 361.32 298.085 361.387 298.016C361.454 297.946 361.506 297.863 361.541 297.773C361.576 297.683 361.592 297.587 361.59 297.49L361.58 297.4C361.538 295.747 360.839 294.177 359.637 293.037C358.435 291.897 356.829 291.28 355.17 291.32H354.91C354.088 291.341 353.278 291.523 352.526 291.856C351.775 292.189 351.096 292.666 350.53 293.26C349.963 293.855 349.52 294.554 349.225 295.32C348.93 296.085 348.789 296.901 348.81 297.72V297.81C348.812 297.906 348.834 298 348.873 298.088C348.912 298.175 348.968 298.254 349.038 298.32C349.107 298.386 349.189 298.438 349.279 298.472C349.368 298.506 349.464 298.523 349.56 298.52Z" fill="#D9BD2E"/>
<path d="M396.75 287.98C396.943 288.906 397.277 288.963 397.75 288.15C400.79 282.956 404.95 280.566 410.23 280.98C410.625 281.01 410.995 281.186 411.267 281.475C411.539 281.763 411.694 282.143 411.7 282.54L411.91 295.22C411.911 295.303 411.893 295.386 411.86 295.462C411.826 295.538 411.777 295.606 411.715 295.661C411.654 295.716 411.581 295.757 411.502 295.781C411.424 295.805 411.341 295.811 411.26 295.8C405.77 295.02 398.98 296.34 398.94 303.28C398.9 309.94 398.88 317.006 398.88 324.48C398.88 324.607 398.829 324.729 398.739 324.819C398.649 324.909 398.527 324.96 398.4 324.96L383.42 325.11C383.16 325.11 383.03 324.98 383.03 324.72L382.88 282.49C382.88 282.414 382.895 282.339 382.924 282.269C382.953 282.199 382.996 282.136 383.05 282.083C383.104 282.03 383.168 281.988 383.239 281.96C383.309 281.932 383.384 281.918 383.46 281.92L395.19 282C395.371 282 395.549 282.039 395.715 282.112C395.88 282.186 396.029 282.293 396.151 282.428C396.273 282.562 396.366 282.721 396.424 282.893C396.483 283.065 396.505 283.248 396.49 283.43C396.357 285.016 396.443 286.533 396.75 287.98Z" fill="#D9BD2E"/>
</svg>
