<svg width="917" height="200" viewBox="0 0 917 200" fill="none" xmlns="http://www.w3.org/2000/svg">
<path d="M331.535 44.3525C330.005 41.2825 331.195 37.4925 334.765 36.6725C337.125 36.1325 339.355 36.6192 341.455 38.1325C341.537 38.1923 341.606 38.2678 341.659 38.3544C341.711 38.441 341.746 38.537 341.761 38.6367C341.776 38.7365 341.771 38.8379 341.746 38.9351C341.721 39.0323 341.676 39.1232 341.615 39.2025C340.442 40.7292 338.805 41.1758 336.705 40.5425C336.461 40.4699 336.201 40.466 335.955 40.5313C335.708 40.5965 335.483 40.7284 335.305 40.9125C334.252 42.0125 334.775 43.2758 336.875 44.7025C337.091 44.8466 337.342 44.9328 337.605 44.9525L341.395 45.1625C341.928 45.1892 342.188 45.4692 342.175 46.0025L342.125 48.6425C342.118 49.1892 341.842 49.4625 341.295 49.4625L330.235 49.4925C329.635 49.4925 329.342 49.1925 329.355 48.5925L329.435 45.8725C329.441 45.6829 329.515 45.5017 329.643 45.3622C329.772 45.2226 329.946 45.134 330.135 45.1125L331.185 45.0025C331.605 44.9492 331.722 44.7325 331.535 44.3525Z" fill="#61615F"/>
<path d="M45.785 91.1923C42.4717 95.2523 37.335 96.789 30.375 95.8023C27.635 95.409 25.7117 94.1856 24.605 92.1323C24.3784 91.7123 24.1117 91.6823 23.805 92.0423C19.645 96.9157 14.3284 97.899 7.85504 94.9923C3.99504 93.259 1.56171 89.8223 0.55504 84.6823C-1.56496 73.9323 2.20504 61.5823 15.035 61.3723C19.775 61.2857 24.505 61.2623 29.225 61.3023C29.401 61.305 29.5689 61.3767 29.6924 61.5021C29.8158 61.6274 29.8851 61.7964 29.885 61.9723V84.5623C29.8784 85.5223 30.3384 86.1257 31.265 86.3723C32.2117 86.6257 33.2284 86.7623 34.315 86.7823C40.005 86.9023 40.365 83.2923 40.385 78.4723C40.4384 66.9857 40.435 55.5357 40.375 44.1223C40.375 43.589 40.6417 43.3223 41.175 43.3223L48.705 43.2823C49.2717 43.2757 49.5417 43.5557 49.515 44.1223C49.475 45.0423 49.455 45.9257 49.455 46.7723C49.4817 57.479 49.5217 68.8123 49.575 80.7723C49.595 86.0223 53.705 88.0023 58.275 86.3123C59.7817 85.759 60.5384 84.4223 60.545 82.3023C60.555 77.8923 60.795 73.1623 62.675 69.1923C68.055 57.8723 85.255 58.5123 89.265 70.9023C92.155 79.8223 90.805 93.6223 79.905 96.2723C73.4784 97.8323 68.4717 96.3357 64.885 91.7823C64.5917 91.4023 64.325 91.4223 64.085 91.8423C63.0984 93.5823 61.715 94.739 59.935 95.3123C54.015 97.2057 49.545 95.8423 46.525 91.2223C46.2984 90.8757 46.0517 90.8657 45.785 91.1923ZM75.6944 88.0022C76.531 87.9978 77.358 87.7496 78.1283 87.2716C78.8987 86.7937 79.5973 86.0954 80.1842 85.2167C80.7711 84.3379 81.2348 83.2959 81.549 82.1501C81.8631 81.0044 82.0214 79.7773 82.0149 78.5389C82.0085 77.3006 81.8373 76.0752 81.5112 74.9328C81.185 73.7904 80.7104 72.7533 80.1143 71.8808C79.5182 71.0082 78.8124 70.3173 78.0371 69.8475C77.2617 69.3776 76.4322 69.138 75.5956 69.1424C74.7591 69.1468 73.9321 69.3951 73.1617 69.873C72.3914 70.351 71.6928 71.0493 71.1059 71.928C70.519 72.8068 70.0552 73.8488 69.7411 74.9945C69.427 76.1403 69.2687 77.3674 69.2751 78.6057C69.2816 79.8441 69.4528 81.0694 69.7789 82.2118C70.105 83.3543 70.5797 84.3913 71.1758 85.2639C71.7719 86.1364 72.4777 86.8274 73.253 87.2972C74.0283 87.767 74.8579 88.0066 75.6944 88.0022ZM13.415 69.7923C8.55504 70.6923 8.31504 78.7223 9.06504 82.5123C10.535 89.8823 21.045 88.2823 20.805 81.2923C20.6717 77.359 20.665 73.6657 20.785 70.2123C20.805 69.7923 20.605 69.5657 20.185 69.5323C17.5984 69.3457 15.3417 69.4323 13.415 69.7923Z" fill="#61615F"/>
<path d="M128.055 84.3924L121.515 76.5524C121.386 76.3973 121.206 76.2926 121.005 76.2561C120.805 76.2197 120.596 76.2537 120.415 76.3524L118.535 77.4124C118.075 77.6658 117.848 77.5324 117.855 77.0124L117.885 69.2024C117.885 68.5891 118.145 68.1258 118.665 67.8124C127.498 62.4124 136.342 60.9991 145.195 63.5724C148.742 64.5991 151.128 66.7291 152.355 69.9624C154.655 76.0024 151.465 81.6224 146.545 85.2024C145.385 86.0491 145.522 86.5191 146.955 86.6124C150.928 86.8658 154.888 86.8758 158.835 86.6424C161.045 86.5124 163.675 85.2524 163.685 82.7124C163.765 70.1058 163.765 57.1158 163.685 43.7424C163.685 43.4291 163.842 43.2758 164.155 43.2824L172.415 43.3424C172.768 43.3424 172.942 43.5191 172.935 43.8724C172.775 54.5658 172.765 65.0758 172.905 75.4024C172.992 81.5091 172.632 85.5224 171.825 87.4424C169.745 92.4091 165.642 95.2091 159.515 95.8424C153.982 96.4158 148.272 96.3491 142.385 95.6424C139.855 95.3424 137.565 94.2724 135.385 92.9824C135.103 92.8117 134.783 92.7093 134.452 92.6833C134.12 92.6573 133.786 92.7083 133.475 92.8324C124.325 96.4724 104.315 99.9924 99.235 87.7624C98.4283 85.8291 98.0416 83.0291 98.075 79.3624C98.195 67.1091 98.2183 55.2724 98.145 43.8524C98.145 43.4791 98.3316 43.2958 98.705 43.3024L106.665 43.3324C107.072 43.3324 107.275 43.5358 107.275 43.9424C107.208 55.8491 107.192 67.2058 107.225 78.0124C107.245 82.1024 106.395 86.2924 112.375 86.6824C118.708 87.0891 123.865 86.5824 127.845 85.1624C128.285 85.0024 128.355 84.7458 128.055 84.3924ZM143.045 76.4724C143.478 75.981 143.709 75.3437 143.691 74.69C143.672 74.0362 143.405 73.415 142.945 72.9524C140.265 70.2224 132.735 71.4024 129.525 72.4424C129.506 72.447 129.488 72.4566 129.473 72.4705C129.459 72.4844 129.448 72.502 129.442 72.5219C129.436 72.5417 129.435 72.5631 129.439 72.5842C129.443 72.6052 129.452 72.6252 129.465 72.6424L136.365 81.0824C136.439 81.1669 136.539 81.2239 136.648 81.2439C136.757 81.2639 136.869 81.2458 136.965 81.1924C139.472 79.8058 141.498 78.2324 143.045 76.4724Z" fill="#61615F"/>
<path d="M189.835 43.3125H181.535C181.331 43.3125 181.165 43.4781 181.165 43.6825V95.7425C181.165 95.9468 181.331 96.1125 181.535 96.1125H189.835C190.039 96.1125 190.205 95.9468 190.205 95.7425V43.6825C190.205 43.4781 190.039 43.3125 189.835 43.3125Z" fill="#61615F"/>
<path d="M328.345 86.3222C332.155 87.7322 347.395 91.3222 349.105 86.1322C349.665 84.4389 349.942 82.4856 349.935 80.2722C349.895 67.8256 349.878 55.7056 349.885 43.9122C349.885 43.5456 350.068 43.3589 350.435 43.3522L358.345 43.2822C358.738 43.2822 358.938 43.4789 358.945 43.8722C359.092 55.1189 359.088 67.7556 358.935 81.7822C358.835 90.6122 354.855 97.1322 345.205 97.7722C338.518 98.2189 331.922 97.1555 325.415 94.5822C325.068 94.4489 324.955 94.2089 325.075 93.8622L327.605 86.6822C327.732 86.3089 327.978 86.1889 328.345 86.3222Z" fill="#61615F"/>
<path d="M375.975 43.3223H367.735C367.498 43.3223 367.305 43.5148 367.305 43.7523V95.6523C367.305 95.8898 367.498 96.0823 367.735 96.0823H375.975C376.213 96.0823 376.405 95.8898 376.405 95.6523V43.7523C376.405 43.5148 376.213 43.3223 375.975 43.3223Z" fill="#61615F"/>
<path d="M455.625 43.3223H447.385C447.114 43.3223 446.895 43.5417 446.895 43.8123V95.6123C446.895 95.8829 447.114 96.1023 447.385 96.1023H455.625C455.896 96.1023 456.115 95.8829 456.115 95.6123V43.8123C456.115 43.5417 455.896 43.3223 455.625 43.3223Z" fill="#61615F"/>
<path d="M623.025 43.2925H615.045C614.73 43.2925 614.475 43.5477 614.475 43.8625V82.7225C614.475 83.0373 614.73 83.2925 615.045 83.2925H623.025C623.34 83.2925 623.595 83.0373 623.595 82.7225V43.8625C623.595 43.5477 623.34 43.2925 623.025 43.2925Z" fill="#61615F"/>
<path d="M628.015 88.5424C631.225 88.2624 632.125 85.3925 632.135 82.6825C632.208 69.7091 632.225 56.7525 632.185 43.8125C632.185 43.6852 632.236 43.5631 632.326 43.4731C632.416 43.383 632.538 43.3325 632.665 43.3325L640.905 43.2725C641.017 43.2725 641.123 43.3167 641.202 43.3955C641.281 43.4742 641.325 43.5811 641.325 43.6925C641.372 55.5658 641.378 67.8158 641.345 80.4425C641.325 88.7425 638.455 96.5725 628.985 97.5925C621.678 98.3791 614.582 97.3525 607.695 94.5125C607.55 94.4537 607.432 94.3413 607.369 94.1992C607.305 94.0571 607.3 93.8968 607.355 93.7525L609.915 86.7225C610.035 86.3758 610.268 86.2624 610.615 86.3824C616.222 88.3424 622.022 89.0624 628.015 88.5424Z" fill="#61615F"/>
<path d="M15.0051 43.5825H9.80506C9.32457 43.5825 8.93506 43.972 8.93506 44.4525V51.9725C8.93506 52.453 9.32457 52.8425 9.80506 52.8425H15.0051C15.4855 52.8425 15.8751 52.453 15.8751 51.9725V44.4525C15.8751 43.972 15.4855 43.5825 15.0051 43.5825Z" fill="#61615F"/>
<path d="M25.015 43.6426H19.215C18.9113 43.6426 18.665 43.8888 18.665 44.1926V52.2526C18.665 52.5564 18.9113 52.8026 19.215 52.8026H25.015C25.3188 52.8026 25.565 52.5564 25.565 52.2526V44.1926C25.565 43.8888 25.3188 43.6426 25.015 43.6426Z" fill="#61615F"/>
<path d="M510.073 43.6576L504.253 43.6474C503.949 43.6469 503.703 43.8927 503.702 44.1965L503.688 52.2365C503.688 52.5402 503.933 52.7869 504.237 52.7874L510.057 52.7976C510.361 52.7981 510.608 52.5523 510.608 52.2485L510.622 44.2086C510.623 43.9048 510.377 43.6581 510.073 43.6576Z" fill="#61615F"/>
<path d="M519.687 43.6821L514.107 43.6431C513.753 43.6407 513.465 43.9252 513.462 44.2787L513.408 52.1185C513.405 52.4719 513.69 52.7604 514.043 52.7629L519.623 52.8019C519.976 52.8043 520.265 52.5198 520.267 52.1664L520.322 44.3265C520.325 43.9731 520.04 43.6846 519.687 43.6821Z" fill="#61615F"/>
<path d="M538.145 43.6123H532.425C532.11 43.6123 531.855 43.8675 531.855 44.1823V52.2423C531.855 52.5571 532.11 52.8123 532.425 52.8123H538.145C538.46 52.8123 538.715 52.5571 538.715 52.2423V44.1823C538.715 43.8675 538.46 43.6123 538.145 43.6123Z" fill="#61615F"/>
<path d="M547.659 43.5829L542.299 43.6016C541.846 43.6032 541.48 43.9716 541.482 44.4245L541.509 52.0844C541.51 52.5373 541.879 52.9032 542.331 52.9016L547.691 52.8829C548.144 52.8813 548.51 52.5129 548.509 52.06L548.482 44.4001C548.48 43.9472 548.112 43.5813 547.659 43.5829Z" fill="#61615F"/>
<path d="M340.825 52.0522H332.625C332.377 52.0522 332.175 52.2537 332.175 52.5023V82.8222C332.175 83.0708 332.377 83.2722 332.625 83.2722H340.825C341.074 83.2722 341.275 83.0708 341.275 82.8222V52.5023C341.275 52.2537 341.074 52.0522 340.825 52.0522Z" fill="#61615F"/>
<path d="M501.465 86.1426C494.985 79.7526 494.835 69.5226 501.985 63.5826C510.925 56.1526 525.725 60.8126 527.085 73.0926C527.658 78.266 526.092 82.6426 522.385 86.2226C522.341 86.2634 522.31 86.3164 522.297 86.3748C522.283 86.4333 522.287 86.4944 522.309 86.5503C522.331 86.6063 522.368 86.6546 522.418 86.6888C522.467 86.7231 522.525 86.7419 522.585 86.7426C525.292 86.856 528.045 86.8326 530.845 86.6726C534.935 86.4426 535.605 82.7826 535.585 79.3826C535.552 72.9093 535.568 66.9826 535.635 61.6026C535.635 61.396 535.742 61.2926 535.955 61.2926L544.375 61.3026C544.568 61.3026 544.665 61.3993 544.665 61.5926C544.618 68.8326 544.645 75.396 544.745 81.2826C544.805 84.8226 546.588 86.6426 550.095 86.7426C554.035 86.8493 557.802 86.8493 561.395 86.7426C561.527 86.7375 561.651 86.6814 561.743 86.5864C561.834 86.4913 561.885 86.3645 561.885 86.2326L561.855 68.3726C561.855 67.986 562.048 67.796 562.435 67.8026L570.395 67.9326C570.547 67.9353 570.692 67.9975 570.799 68.106C570.905 68.2145 570.965 68.3605 570.965 68.5126L570.915 86.2926C570.915 86.6393 571.088 86.8093 571.435 86.8026L577.615 86.7526C577.975 86.7526 578.155 86.5726 578.155 86.2126C578.208 79.966 577.888 73.6493 577.195 67.2626C577.155 66.896 577.315 66.6693 577.675 66.5826L584.985 64.8626C585.345 64.776 585.578 64.9093 585.685 65.2626C585.885 65.956 586.028 66.6593 586.115 67.3726C586.862 73.226 587.155 79.256 586.995 85.4626C586.962 86.616 587.522 87.116 588.675 86.9626L591.525 86.5826C592.098 86.5056 592.628 86.2359 593.028 85.818C593.428 85.4001 593.674 84.8587 593.725 84.2826C594.432 76.1893 593.582 69.1026 591.175 63.0226C590.962 62.476 591.115 62.0693 591.635 61.8026L597.925 58.5626C598.605 58.216 599.085 58.3993 599.365 59.1126C601.638 64.9393 602.898 71.4893 603.145 78.7626C603.258 82.0226 602.948 84.836 602.215 87.2026C600.035 94.2326 594.765 96.1727 588.025 96.1627C573.972 96.156 561.478 96.146 550.545 96.1326C546.752 96.1326 543.902 94.616 541.995 91.5826C541.662 91.056 541.285 91.016 540.865 91.4626C538.305 94.1893 535.202 95.6893 531.555 95.9626C526.902 96.3226 522.272 96.306 517.665 95.9127C515.972 95.7727 514.382 95.286 512.895 94.4526C512.65 94.3163 512.376 94.2398 512.096 94.2294C511.816 94.219 511.538 94.2749 511.285 94.3926C508.705 95.5993 505.698 96.196 502.265 96.1826C489.892 96.1426 477.372 96.1226 464.705 96.1226C464.619 96.1227 464.537 96.0893 464.475 96.0295C464.414 95.9698 464.378 95.8884 464.375 95.8026L464.295 87.1126C464.294 87.0764 464.3 87.0402 464.313 87.0063C464.327 86.9724 464.347 86.9415 464.373 86.9153C464.4 86.8892 464.431 86.8684 464.466 86.8542C464.5 86.84 464.537 86.8327 464.575 86.8326L478.955 86.7926C479.355 86.7926 479.568 86.5926 479.595 86.1926C479.888 81.206 479.708 77.2726 479.055 74.3926C477.645 68.1926 469.395 69.5026 464.705 69.6026C464.472 69.6093 464.355 69.496 464.355 69.2626L464.385 61.7426C464.385 61.4826 464.515 61.346 464.775 61.3326C467.622 61.2393 470.425 61.2726 473.185 61.4326C488.055 62.3126 488.925 74.2826 488.565 86.0526C488.552 86.566 488.802 86.8226 489.315 86.8226L501.195 86.8126C501.822 86.8126 501.912 86.5893 501.465 86.1426ZM512.385 84.0226C515.915 81.3826 519.465 76.3626 517.625 71.8326C516.065 68.0126 510.985 67.0826 508.015 69.6026C502.955 73.8826 507.265 80.9426 511.465 84.0226C511.772 84.2493 512.078 84.2493 512.385 84.0226Z" fill="#61615F"/>
<path d="M259.005 69.5624C253.655 69.6724 251.535 71.1323 251.495 76.7624C251.455 83.129 251.452 89.439 251.485 95.6924C251.486 95.751 251.476 95.8093 251.455 95.8638C251.433 95.9184 251.401 95.968 251.36 96.01C251.319 96.0519 251.27 96.0852 251.216 96.1079C251.162 96.1307 251.104 96.1424 251.045 96.1424C244.578 96.1557 237.452 96.1724 229.665 96.1924C221.605 96.2124 216.322 93.1124 213.815 86.8924C211.795 81.8624 212.575 74.2624 212.475 68.3024C212.475 68.149 212.548 68.0723 212.695 68.0723C216.742 67.9257 219.495 67.989 220.955 68.2623C221.002 68.2757 221.025 68.3057 221.025 68.3523C220.905 72.339 220.912 76.2224 221.045 80.0024C221.198 84.4224 223.472 86.679 227.865 86.7724C232.792 86.8657 237.518 86.8624 242.045 86.7624C242.152 86.7597 242.254 86.7154 242.329 86.6388C242.403 86.5622 242.445 86.4594 242.445 86.3523C242.465 81.4423 241.905 76.2624 243.165 71.6924C246.525 59.5124 258.455 61.1924 268.415 61.3124C268.543 61.315 268.665 61.3667 268.755 61.4564C268.845 61.5462 268.895 61.6668 268.895 61.7923L268.905 86.7724C268.905 87.259 268.658 87.499 268.165 87.4924L260.355 87.3624C260.187 87.3597 260.027 87.2911 259.909 87.1714C259.791 87.0517 259.725 86.8904 259.725 86.7224V70.2624C259.725 70.1687 259.706 70.076 259.67 69.9898C259.634 69.9035 259.58 69.8255 259.513 69.7602C259.446 69.6949 259.366 69.6438 259.279 69.6098C259.192 69.5758 259.099 69.5597 259.005 69.5624Z" fill="#61615F"/>
<path d="M301.335 86.8424C306.135 86.8424 310.935 87.2024 310.945 80.8224C310.952 74.3624 310.948 68.0991 310.935 62.0324C310.935 61.5458 311.178 61.3024 311.665 61.3024L319.245 61.2924C319.367 61.291 319.487 61.3143 319.6 61.3607C319.712 61.4072 319.814 61.476 319.899 61.5629C319.984 61.6498 320.05 61.7531 320.094 61.8665C320.138 61.9798 320.159 62.1009 320.155 62.2224C320.028 66.2491 320.025 70.4391 320.145 74.7924C320.298 80.2324 319.948 84.1724 319.095 86.6124C316.862 92.9724 311.645 96.1524 303.445 96.1524C294.272 96.1591 285.458 96.1591 277.005 96.1524C276.88 96.1524 276.761 96.1029 276.673 96.0148C276.585 95.9266 276.535 95.8071 276.535 95.6824L276.575 87.1924C276.575 87.0917 276.616 86.995 276.689 86.9237C276.762 86.8525 276.862 86.8124 276.965 86.8124L291.345 86.8324C291.487 86.8325 291.622 86.7769 291.723 86.6778C291.824 86.5787 291.882 86.4439 291.885 86.3024C291.965 82.9358 291.898 79.6758 291.685 76.5224C291.445 73.0924 289.895 70.2024 286.325 69.8224C283.435 69.5124 280.605 69.4224 277.675 69.6624C276.895 69.7291 276.512 69.3691 276.525 68.5824L276.615 62.4124C276.628 61.5924 277.048 61.1991 277.875 61.2324C282.075 61.3924 286.665 60.9924 290.575 62.3124C300.955 65.8224 301.205 76.8124 300.745 86.2224C300.725 86.6358 300.922 86.8424 301.335 86.8424Z" fill="#61615F"/>
<path d="M409.695 81.7823C408.095 70.0323 414.915 58.6923 428.265 61.6823C438.095 63.8923 440.535 75.2523 439.005 84.0023C437.265 93.9223 428.305 98.2023 419.145 95.2923C415.958 94.279 412.648 93.0023 409.215 91.4623C408.994 91.3624 408.755 91.3112 408.512 91.3121C408.27 91.313 408.031 91.3659 407.811 91.4674C407.591 91.5689 407.395 91.7165 407.237 91.9002C407.079 92.084 406.962 92.2996 406.895 92.5323C406.675 93.299 406.598 94.119 406.665 94.9923C407.158 101.672 407.688 107.592 408.255 112.752C408.265 112.836 408.257 112.921 408.232 113.001C408.207 113.081 408.165 113.156 408.109 113.219C408.054 113.282 407.986 113.333 407.909 113.368C407.832 113.403 407.749 113.421 407.665 113.422L400.415 113.512C400.002 113.519 399.775 113.316 399.735 112.902C399.022 106.289 398.542 100.079 398.295 94.2723C398.005 87.3323 400.885 80.9823 409.165 82.3023C409.235 82.3138 409.307 82.3086 409.375 82.2868C409.443 82.2651 409.505 82.2276 409.557 82.1772C409.608 82.1267 409.647 82.0649 409.671 81.9963C409.695 81.9278 409.704 81.8546 409.695 81.7823ZM420.865 70.4923C417.295 73.5523 417.965 81.0723 419.255 85.3223C419.375 85.729 419.632 86.0156 420.025 86.1823C424.045 87.8423 429.065 87.4423 430.255 82.3723C431.055 78.9723 430.985 72.8823 427.815 70.4923C425.855 69.0123 422.825 68.8323 420.865 70.4923Z" fill="#61615F"/>
<path d="M614.665 107.682C614.455 106.612 613.865 105.612 613.995 104.512C614.705 98.9123 621.235 98.5024 624.765 101.472C624.899 101.584 624.985 101.742 625.006 101.915C625.026 102.088 624.98 102.263 624.875 102.402C623.495 104.212 621.965 104.212 619.975 103.832C619.7 103.781 619.416 103.803 619.151 103.896C618.887 103.989 618.652 104.15 618.471 104.362C618.289 104.574 618.167 104.83 618.117 105.104C618.067 105.378 618.09 105.66 618.185 105.922C619.005 108.252 622.465 108.482 624.565 108.312C625.105 108.272 625.379 108.522 625.385 109.062L625.425 112.052C625.425 112.419 625.245 112.602 624.885 112.602L613.255 112.732C612.829 112.739 612.615 112.532 612.615 112.112L612.625 108.802C612.632 108.462 612.802 108.292 613.135 108.292L614.145 108.302C614.565 108.302 614.739 108.096 614.665 107.682Z" fill="#61615F"/>
<path d="M231.319 100.573L225.859 100.592C225.45 100.594 225.12 100.926 225.121 101.335L225.148 109.075C225.15 109.483 225.482 109.814 225.891 109.812L231.351 109.793C231.76 109.792 232.09 109.459 232.088 109.05L232.061 101.31C232.06 100.902 231.728 100.572 231.319 100.573Z" fill="#61615F"/>
<path d="M241.063 100.637L235.523 100.628C235.17 100.627 234.883 100.913 234.882 101.266L234.868 109.146C234.868 109.5 235.154 109.787 235.507 109.788L241.047 109.797C241.401 109.798 241.688 109.512 241.688 109.158L241.702 101.278C241.703 100.925 241.417 100.638 241.063 100.637Z" fill="#61615F"/>
<path d="M309.437 100.588L303.817 100.598C303.464 100.598 303.178 100.885 303.178 101.239L303.192 109.139C303.193 109.492 303.48 109.778 303.833 109.778L309.453 109.768C309.806 109.767 310.093 109.48 310.092 109.127L310.078 101.227C310.077 100.873 309.79 100.587 309.437 100.588Z" fill="#61615F"/>
<path d="M319.135 100.652H313.515C313.184 100.652 312.915 100.921 312.915 101.252V109.192C312.915 109.524 313.184 109.792 313.515 109.792H319.135C319.466 109.792 319.735 109.524 319.735 109.192V101.252C319.735 100.921 319.466 100.652 319.135 100.652Z" fill="#61615F"/>
<path d="M492.705 122.552C494.754 122.552 496.415 120.891 496.415 118.842C496.415 116.793 494.754 115.132 492.705 115.132C490.656 115.132 488.995 116.793 488.995 118.842C488.995 120.891 490.656 122.552 492.705 122.552Z" fill="#61615F"/>
<path d="M361.515 138.633L361.545 152.323C361.545 152.776 361.318 153.006 360.865 153.013L355.615 153.043C355.068 153.043 354.795 152.769 354.795 152.223L354.755 117.243C354.755 116.869 354.938 116.649 355.305 116.583C362.735 115.263 378.145 113.893 379.445 124.673C379.998 129.286 378.065 132.736 373.645 135.023C373.065 135.323 373.052 135.646 373.605 135.993C375.778 137.346 377.192 139.439 377.845 142.273C378.665 145.833 379.755 149.403 380.805 152.793C380.815 152.819 380.818 152.848 380.815 152.876C380.811 152.904 380.8 152.931 380.783 152.954C380.766 152.977 380.744 152.995 380.718 153.007C380.692 153.019 380.664 153.024 380.635 153.023L374.085 153.013C374.008 153.013 373.932 152.988 373.871 152.941C373.809 152.894 373.765 152.827 373.745 152.753C372.752 149.253 371.802 145.766 370.895 142.293C369.805 138.143 365.935 137.623 362.325 137.783C361.785 137.809 361.515 138.093 361.515 138.633ZM361.495 121.853L361.555 132.093C361.558 132.316 361.648 132.53 361.808 132.687C361.967 132.844 362.181 132.933 362.405 132.933L365.885 132.923C366.782 132.918 367.67 132.773 368.497 132.498C369.325 132.222 370.076 131.821 370.707 131.317C371.339 130.812 371.838 130.215 372.178 129.559C372.517 128.903 372.69 128.201 372.685 127.493V126.333C372.676 124.904 371.949 123.537 370.662 122.534C369.376 121.531 367.636 120.973 365.825 120.983L362.345 120.993C362.233 120.993 362.121 121.015 362.018 121.058C361.914 121.102 361.82 121.165 361.741 121.245C361.661 121.325 361.599 121.42 361.557 121.524C361.515 121.629 361.494 121.74 361.495 121.853Z" fill="#61615F"/>
<path d="M7.76504 131.772L20.185 131.782C20.3309 131.782 20.4708 131.84 20.5739 131.943C20.6771 132.046 20.735 132.186 20.735 132.332L20.715 136.732C20.715 136.878 20.6571 137.018 20.5539 137.121C20.4508 137.224 20.3109 137.282 20.165 137.282L7.71504 137.262C7.56917 137.262 7.42928 137.32 7.32613 137.423C7.22299 137.526 7.16504 137.666 7.16504 137.812L7.19504 152.382C7.19513 152.525 7.13994 152.662 7.04108 152.764C6.94223 152.867 6.80741 152.927 6.66504 152.932L1.00504 153.092C0.931143 153.095 0.857469 153.083 0.788414 153.056C0.719359 153.03 0.656344 152.99 0.603134 152.938C0.549925 152.887 0.507619 152.825 0.478737 152.757C0.449855 152.689 0.434987 152.616 0.435036 152.542L0.415039 116.582C0.415039 116.436 0.472989 116.296 0.576134 116.193C0.679279 116.09 0.819173 116.032 0.965042 116.032L21.245 116.042C21.3181 116.042 21.3905 116.057 21.4578 116.085C21.5252 116.113 21.5863 116.155 21.6375 116.207C21.6887 116.259 21.729 116.321 21.7561 116.389C21.7831 116.457 21.7964 116.529 21.795 116.602L21.745 121.072C21.7424 121.216 21.6833 121.354 21.5805 121.455C21.4776 121.556 21.3392 121.612 21.195 121.612L7.72504 121.562C7.57917 121.562 7.43927 121.62 7.33613 121.723C7.23298 121.826 7.17504 121.966 7.17504 122.112L7.21504 131.222C7.21504 131.368 7.27298 131.508 7.37613 131.611C7.47927 131.714 7.61917 131.772 7.76504 131.772Z" fill="#61615F"/>
<path d="M95.275 124.512L93.945 152.262C93.925 152.742 93.6716 152.986 93.185 152.992L88.175 153.072C87.7283 153.079 87.5183 152.859 87.545 152.412L89.855 116.792C89.8883 116.292 90.155 116.042 90.655 116.042L98.145 116.032C98.605 116.032 98.9116 116.252 99.065 116.692C101.978 125.159 104.602 133.849 106.935 142.762C107.102 143.402 107.275 143.402 107.455 142.762C109.715 134.409 112.458 125.739 115.685 116.752C115.858 116.266 116.205 116.022 116.725 116.022L124.105 116.032C124.289 116.032 124.467 116.103 124.6 116.229C124.734 116.355 124.815 116.529 124.825 116.712L126.835 152.562C126.855 152.882 126.702 153.042 126.375 153.042L120.665 152.982C120.358 152.982 120.198 152.829 120.185 152.522L119.025 124.012C119.023 123.978 119.011 123.942 118.991 123.91C118.971 123.879 118.945 123.854 118.916 123.839C118.887 123.825 118.859 123.823 118.835 123.832C118.811 123.842 118.793 123.863 118.785 123.892L109.475 151.892C109.328 152.319 109.028 152.532 108.575 152.532L104.905 152.542C104.675 152.542 104.451 152.469 104.264 152.335C104.078 152.2 103.938 152.01 103.865 151.792C100.632 142.239 97.9216 133.129 95.735 124.462C95.475 123.456 95.3216 123.472 95.275 124.512Z" fill="#61615F"/>
<path d="M504.465 125.732L504.415 122.053C504.412 121.835 504.483 121.623 504.615 121.449C504.747 121.276 504.933 121.15 505.145 121.093L510.195 119.762C510.895 119.582 511.225 119.852 511.185 120.572L510.915 125.623C510.911 125.704 510.924 125.786 510.952 125.863C510.98 125.94 511.023 126.01 511.079 126.07C511.135 126.129 511.203 126.177 511.278 126.21C511.353 126.244 511.433 126.261 511.515 126.262L516.705 126.313C517.205 126.313 517.455 126.563 517.455 127.063L517.475 130.493C517.482 131.019 517.222 131.289 516.695 131.303L511.615 131.433C511.182 131.439 510.968 131.662 510.975 132.102C511.042 136.436 511.118 140.679 511.205 144.833C511.275 148.213 514.315 147.912 516.635 148.132C516.816 148.152 516.983 148.238 517.103 148.373C517.224 148.509 517.288 148.683 517.285 148.863L517.235 152.333C517.228 152.679 517.058 152.899 516.725 152.993C515.485 153.326 514.182 153.506 512.815 153.533C505.205 153.693 504.265 148.043 504.375 141.993C504.442 138.226 504.455 134.823 504.415 131.783C504.408 131.423 504.225 131.256 503.865 131.283L501.395 131.473C500.875 131.513 500.618 131.273 500.625 130.753L500.675 127.042C500.682 126.562 500.922 126.319 501.395 126.313L503.955 126.262C504.295 126.256 504.465 126.079 504.465 125.732Z" fill="#61615F"/>
<path d="M636.395 126.283L641.815 126.322C642.228 126.329 642.432 126.536 642.425 126.943L642.385 130.562C642.385 131.069 642.132 131.319 641.625 131.312L636.425 131.272C636.058 131.272 635.875 131.452 635.875 131.812C635.868 136.159 635.918 140.416 636.025 144.582C636.115 148.252 638.905 147.893 641.495 148.033C641.675 148.043 641.845 148.122 641.968 148.255C642.091 148.387 642.158 148.562 642.155 148.742L642.135 152.242C642.128 152.696 641.908 152.972 641.475 153.072C635.605 154.402 629.865 153.162 629.535 146.132C629.322 141.659 629.288 136.956 629.435 132.022C629.438 131.923 629.42 131.824 629.384 131.732C629.348 131.64 629.293 131.556 629.224 131.486C629.155 131.416 629.072 131.361 628.981 131.324C628.89 131.287 628.793 131.27 628.695 131.272L626.235 131.322C625.735 131.329 625.492 131.086 625.505 130.592L625.605 127.062C625.625 126.562 625.882 126.309 626.375 126.302L628.805 126.272C629.225 126.266 629.432 126.052 629.425 125.632L629.385 122.212C629.372 121.612 629.655 121.236 630.235 121.082L635.095 119.762C635.695 119.596 635.988 119.826 635.975 120.452L635.865 125.753C635.858 126.106 636.035 126.283 636.395 126.283Z" fill="#61615F"/>
<path d="M35.9553 153.525C32.3884 152.922 29.2152 150.88 27.1337 147.848C25.0522 144.816 24.2329 141.042 24.8561 137.358C25.1647 135.533 25.8181 133.786 26.7791 132.214C27.74 130.643 28.9897 129.279 30.4568 128.2C31.9238 127.121 33.5795 126.349 35.3293 125.927C37.0791 125.505 38.8888 125.441 40.6549 125.74C44.2218 126.343 47.395 128.385 49.4766 131.417C51.5581 134.449 52.3773 138.223 51.7541 141.907C51.4456 143.732 50.7921 145.479 49.8312 147.05C48.8702 148.622 47.6205 149.986 46.1535 151.065C44.6864 152.143 43.0307 152.916 41.2809 153.338C39.5311 153.76 37.7215 153.824 35.9553 153.525ZM38.3051 148.662C40.0609 148.662 41.7447 147.708 42.9862 146.009C44.2277 144.31 44.9251 142.005 44.9251 139.602C44.9251 137.2 44.2277 134.895 42.9862 133.196C41.7447 131.497 40.0609 130.542 38.3051 130.542C36.5494 130.542 34.8656 131.497 33.6241 133.196C32.3826 134.895 31.6851 137.2 31.6851 139.602C31.6851 142.005 32.3826 144.31 33.6241 146.009C34.8656 147.708 36.5494 148.662 38.3051 148.662Z" fill="#61615F"/>
<path d="M63.5549 130.442C65.8749 127.412 67.6249 125.322 72.0349 125.862C72.2482 125.889 72.3582 126.012 72.3649 126.232L72.4249 131.782C72.425 131.818 72.4177 131.854 72.4034 131.887C72.3891 131.92 72.3681 131.949 72.3418 131.974C72.3155 131.998 72.2845 132.017 72.2506 132.029C72.2167 132.041 72.1807 132.045 72.1449 132.042C66.3449 131.542 64.0149 134.852 64.0949 140.102C64.1482 144.242 64.1783 148.292 64.1849 152.252C64.1849 152.439 64.1115 152.618 63.9805 152.751C63.8495 152.884 63.6715 152.96 63.4849 152.962L57.9949 153.032C57.6149 153.039 57.4249 152.852 57.4249 152.472L57.2949 127.322C57.2949 126.616 57.6483 126.266 58.3549 126.272L61.9449 126.292C62.7782 126.299 63.1682 126.719 63.1149 127.552L62.9449 130.212C62.8982 130.966 63.1016 131.042 63.5549 130.442Z" fill="#61615F"/>
<path d="M147.395 133.573C147.302 133.399 147.205 133.229 147.105 133.063C146.666 132.356 146.064 131.765 145.35 131.335C144.635 130.906 143.828 130.651 142.995 130.593C140.528 130.419 138.048 130.943 135.555 132.163C135.476 132.202 135.388 132.223 135.3 132.225C135.211 132.226 135.122 132.207 135.041 132.17C134.96 132.133 134.888 132.078 134.829 132.009C134.771 131.94 134.729 131.859 134.705 131.773L133.865 128.523C133.758 128.109 133.902 127.816 134.295 127.643C140.005 125.053 149.925 124.163 153.015 130.833C154.062 133.106 154.535 136.119 154.435 139.873C154.302 144.473 154.372 148.616 154.645 152.303C154.685 152.796 154.458 153.043 153.965 153.043L149.345 153.013C148.805 153.013 148.535 152.743 148.535 152.203V151.313C148.535 150.299 148.152 150.126 147.385 150.793C144.605 153.199 141.462 154.039 137.955 153.313C132.865 152.253 130.615 146.973 132.505 142.263C134.535 137.183 141.095 135.583 146.175 135.593C147.688 135.593 148.095 134.919 147.395 133.573ZM138.545 144.903C138.275 150.783 147.265 149.343 147.695 144.063C147.795 142.856 147.778 141.626 147.645 140.373C147.618 140.086 147.465 139.943 147.185 139.943C143.915 139.933 138.745 140.693 138.545 144.903Z" fill="#61615F"/>
<path d="M167.165 129.282C167.166 129.372 167.194 129.46 167.246 129.533C167.297 129.607 167.369 129.664 167.453 129.696C167.537 129.729 167.629 129.735 167.717 129.715C167.804 129.694 167.884 129.648 167.945 129.582C170.732 126.509 174.015 125.282 177.795 125.902C184.745 127.042 185.785 133.872 185.665 139.852C185.578 144.152 185.582 148.296 185.675 152.282C185.678 152.374 185.662 152.465 185.629 152.55C185.596 152.635 185.547 152.713 185.484 152.78C185.42 152.846 185.345 152.898 185.261 152.935C185.177 152.971 185.086 152.991 184.995 152.992L179.615 153.062C179.507 153.064 179.4 153.043 179.3 153.003C179.2 152.962 179.109 152.901 179.032 152.825C178.956 152.749 178.895 152.658 178.855 152.558C178.814 152.457 178.794 152.35 178.795 152.242C178.822 146.816 178.795 141.616 178.715 136.642C178.605 129.192 168.465 129.832 168.285 137.002C168.132 142.576 168.135 147.586 168.295 152.032C168.315 152.632 168.025 152.942 167.425 152.962L162.385 153.122C162.266 153.126 162.147 153.106 162.035 153.064C161.924 153.022 161.822 152.957 161.736 152.875C161.65 152.793 161.582 152.695 161.535 152.586C161.489 152.477 161.465 152.36 161.465 152.242L161.385 126.922C161.385 126.502 161.598 126.292 162.025 126.292L166.345 126.332C166.457 126.333 166.567 126.357 166.67 126.401C166.772 126.446 166.865 126.51 166.943 126.591C167.021 126.672 167.083 126.767 167.124 126.872C167.166 126.977 167.186 127.089 167.185 127.202L167.165 129.282Z" fill="#61615F"/>
<path d="M199.515 150.833V163.223C199.515 163.589 199.332 163.776 198.965 163.783L193.475 163.823C192.968 163.829 192.715 163.579 192.715 163.073L192.655 127.033C192.655 126.526 192.905 126.276 193.405 126.283L197.785 126.333C198.312 126.339 198.585 126.609 198.605 127.143L198.695 129.473C198.722 130.146 198.958 130.229 199.405 129.723C203.715 124.753 211.565 124.123 215.915 129.453C223.195 138.363 218.315 155.403 204.975 153.363C203.155 153.089 201.555 152.163 200.175 150.583C199.735 150.089 199.515 150.173 199.515 150.833ZM212.199 137.273C212.212 136.506 212.074 135.744 211.793 135.031C211.512 134.317 211.093 133.666 210.561 133.114C210.028 132.562 209.392 132.121 208.688 131.815C207.985 131.509 207.228 131.345 206.462 131.332L205.562 131.316C204.795 131.303 204.033 131.44 203.319 131.721C202.606 132.003 201.955 132.421 201.403 132.954C200.851 133.487 200.41 134.123 200.104 134.826C199.798 135.53 199.634 136.286 199.621 137.053L199.531 142.172C199.518 142.939 199.656 143.701 199.937 144.415C200.218 145.128 200.637 145.78 201.169 146.331C201.702 146.883 202.338 147.324 203.042 147.63C203.745 147.936 204.502 148.1 205.269 148.114L206.168 148.129C206.935 148.143 207.697 148.005 208.411 147.724C209.124 147.443 209.775 147.024 210.327 146.491C210.879 145.958 211.32 145.322 211.626 144.619C211.932 143.916 212.096 143.159 212.109 142.392L212.199 137.273Z" fill="#61615F"/>
<path d="M233.967 153.473C232.207 153.137 230.533 152.447 229.04 151.442C227.547 150.437 226.264 149.137 225.265 147.615C224.266 146.093 223.57 144.38 223.217 142.574C222.864 140.767 222.86 138.903 223.207 137.087C223.906 133.418 225.989 130.17 228.996 128.055C232.004 125.941 235.69 125.134 239.243 125.812C241.003 126.148 242.677 126.838 244.17 127.843C245.663 128.848 246.945 130.148 247.945 131.67C248.944 133.192 249.64 134.905 249.993 136.711C250.346 138.518 250.35 140.382 250.003 142.198C249.304 145.866 247.221 149.115 244.213 151.229C241.206 153.344 237.52 154.151 233.967 153.473ZM236.662 148.632C238.421 148.623 240.102 147.661 241.336 145.957C242.571 144.253 243.257 141.948 243.245 139.548C243.239 138.359 243.061 137.183 242.722 136.087C242.383 134.991 241.89 133.996 241.269 133.159C240.649 132.322 239.915 131.659 239.108 131.208C238.302 130.758 237.438 130.528 236.568 130.533C234.809 130.542 233.128 131.504 231.893 133.208C230.659 134.911 229.972 137.217 229.985 139.617C229.991 140.806 230.169 141.982 230.508 143.078C230.847 144.174 231.34 145.169 231.96 146.006C232.58 146.843 233.315 147.506 234.122 147.957C234.928 148.407 235.792 148.637 236.662 148.632Z" fill="#61615F"/>
<path d="M300.345 142.082C300.935 150.092 310.775 148.522 315.825 147.472C315.985 147.439 316.078 147.502 316.105 147.662L316.735 151.512C316.754 151.636 316.729 151.762 316.665 151.868C316.601 151.975 316.502 152.054 316.385 152.092C306.015 155.522 293.595 153.172 293.845 139.562C293.955 133.722 296.985 128.152 302.715 126.392C309.115 124.422 315.625 126.902 317.545 133.692C318.205 136.046 318.432 138.469 318.225 140.962C318.212 141.118 318.142 141.263 318.027 141.369C317.912 141.475 317.761 141.533 317.605 141.532L300.855 141.542C300.785 141.542 300.715 141.557 300.65 141.584C300.585 141.612 300.527 141.652 300.479 141.703C300.432 141.754 300.395 141.814 300.372 141.879C300.349 141.944 300.339 142.014 300.345 142.082ZM300.955 136.802L311.635 136.762C311.728 136.762 311.817 136.726 311.883 136.66C311.948 136.594 311.985 136.505 311.985 136.412V136.172C311.98 134.674 311.384 133.239 310.328 132.183C309.272 131.127 307.843 130.537 306.355 130.542H306.195C305.458 130.545 304.729 130.694 304.05 130.98C303.37 131.266 302.753 131.685 302.234 132.211C301.715 132.738 301.304 133.362 301.024 134.049C300.745 134.735 300.602 135.47 300.605 136.212V136.452C300.605 136.545 300.642 136.634 300.708 136.7C300.773 136.766 300.862 136.802 300.955 136.802Z" fill="#61615F"/>
<path d="M330.375 130.083C332.035 126.969 334.642 125.529 338.195 125.763C338.508 125.789 338.665 125.959 338.665 126.273L338.685 131.543C338.692 131.949 338.488 132.143 338.075 132.123C333.108 131.903 330.602 134.426 330.555 139.693C330.515 143.893 330.498 148.136 330.505 152.423C330.505 152.575 330.445 152.721 330.339 152.829C330.232 152.938 330.087 153 329.935 153.003L324.205 153.073C323.865 153.079 323.692 152.909 323.685 152.563L323.645 127.383C323.645 126.609 324.032 126.229 324.805 126.243L328.275 126.303C329.095 126.323 329.482 126.743 329.435 127.563C329.388 128.409 329.472 129.223 329.685 130.003C329.845 130.609 330.075 130.636 330.375 130.083Z" fill="#61615F"/>
<path d="M391.455 141.522C391.329 141.523 391.205 141.551 391.092 141.605C390.979 141.659 390.879 141.737 390.801 141.834C390.722 141.931 390.666 142.044 390.638 142.165C390.609 142.285 390.608 142.411 390.635 142.532C392.235 149.952 400.505 148.682 405.895 147.492C406.175 147.426 406.345 147.536 406.405 147.822L407.135 151.302C407.215 151.716 407.055 151.982 406.655 152.102C398.335 154.682 387.585 154.372 384.885 144.632C382.415 135.752 386.975 125.962 397.135 125.762C405.885 125.582 409.535 133.672 408.515 141.192C408.505 141.286 408.46 141.373 408.387 141.436C408.315 141.499 408.222 141.533 408.125 141.532L391.455 141.522ZM391.335 136.982L401.975 136.722C402.033 136.721 402.09 136.708 402.143 136.685C402.195 136.662 402.243 136.628 402.283 136.586C402.323 136.545 402.354 136.495 402.375 136.441C402.396 136.388 402.406 136.33 402.405 136.272L402.395 136.132C402.357 134.595 401.727 133.134 400.643 132.073C399.559 131.011 398.11 130.436 396.615 130.472H396.375C394.88 130.511 393.462 131.158 392.432 132.272C391.403 133.386 390.846 134.875 390.885 136.412V136.552C390.886 136.61 390.899 136.667 390.922 136.72C390.946 136.773 390.979 136.821 391.021 136.86C391.063 136.9 391.112 136.932 391.166 136.953C391.22 136.973 391.277 136.984 391.335 136.982Z" fill="#61615F"/>
<path d="M420.165 143.692C422.245 148.512 427.755 148.922 432.145 147.362C432.558 147.216 432.812 147.359 432.905 147.792L433.655 151.552C433.755 152.032 433.572 152.339 433.105 152.472C425.995 154.562 417.595 153.842 414.005 146.742C412.832 144.436 412.325 142.036 412.485 139.542C413.215 127.912 422.515 124.083 432.855 126.413C433.608 126.579 433.885 127.036 433.685 127.782L432.745 131.252C432.592 131.826 432.242 132.006 431.695 131.792C423.345 128.512 416.745 135.772 420.165 143.692Z" fill="#61615F"/>
<path d="M445.335 130.143C446.815 127.069 449.329 125.579 452.875 125.673C453.103 125.68 453.319 125.775 453.478 125.938C453.637 126.1 453.725 126.317 453.725 126.543L453.735 131.253C453.742 131.853 453.445 132.139 452.845 132.113C447.812 131.919 445.328 134.543 445.395 139.983C445.448 144.456 445.455 148.619 445.415 152.473C445.413 152.612 445.356 152.746 445.257 152.845C445.158 152.943 445.025 153 444.885 153.003L439.475 153.093C438.968 153.099 438.712 152.846 438.705 152.333L438.555 126.953C438.555 126.493 438.782 126.266 439.235 126.273L443.615 126.303C444.235 126.303 444.509 126.613 444.435 127.233C444.309 128.253 444.402 129.213 444.715 130.113C444.895 130.619 445.102 130.629 445.335 130.143Z" fill="#61615F"/>
<path d="M544.665 130.083C550.635 122.733 560.795 124.803 561.575 134.973C561.935 139.673 561.995 145.506 561.755 152.473C561.742 152.839 561.552 153.023 561.185 153.023L555.905 153.013C555.825 153.013 555.746 152.997 555.673 152.965C555.599 152.934 555.533 152.888 555.477 152.831C555.421 152.773 555.377 152.704 555.348 152.629C555.318 152.554 555.304 152.474 555.305 152.393C555.392 146.059 555.305 140.679 555.045 136.253C554.635 129.003 545.505 130.093 545.475 137.143C545.448 142.183 545.432 147.233 545.425 152.293C545.425 152.471 545.355 152.643 545.229 152.77C545.104 152.897 544.933 152.97 544.755 152.973L539.635 153.023C539.537 153.024 539.44 153.006 539.349 152.969C539.258 152.933 539.175 152.878 539.105 152.809C539.035 152.741 538.98 152.659 538.942 152.568C538.904 152.478 538.885 152.381 538.885 152.283C538.885 147.329 538.865 142.246 538.825 137.033C538.765 128.933 529.405 130.013 529.235 136.563C529.115 141.049 529.092 146.279 529.165 152.253C529.166 152.352 529.148 152.451 529.11 152.543C529.072 152.635 529.017 152.719 528.946 152.789C528.875 152.86 528.791 152.916 528.698 152.955C528.605 152.993 528.505 153.013 528.405 153.013L523.235 152.993C522.795 152.993 522.575 152.776 522.575 152.343L522.505 127.233C522.505 126.593 522.825 126.279 523.465 126.293L527.405 126.363C528.072 126.376 528.328 126.706 528.175 127.353C528.028 127.973 528.005 128.593 528.105 129.213C528.192 129.786 528.451 129.876 528.885 129.483C530.165 128.323 531.185 127.163 532.885 126.543C537.738 124.776 541.385 125.936 543.825 130.023C544.078 130.443 544.358 130.463 544.665 130.083Z" fill="#61615F"/>
<path d="M573.775 142.322C574.925 149.362 582.945 149.062 588.435 147.502C588.548 147.469 588.666 147.46 588.783 147.474C588.9 147.488 589.013 147.525 589.115 147.584C589.218 147.642 589.308 147.721 589.38 147.815C589.452 147.91 589.505 148.017 589.535 148.132L590.205 150.782C590.392 151.509 590.128 151.982 589.415 152.202C581.185 154.742 569.615 154.222 567.655 143.482C563.765 122.122 593.735 118.522 591.655 141.022C591.628 141.362 591.445 141.532 591.105 141.532L574.465 141.522C574.364 141.523 574.264 141.545 574.172 141.587C574.081 141.629 573.999 141.69 573.934 141.766C573.868 141.842 573.82 141.931 573.792 142.027C573.765 142.123 573.759 142.224 573.775 142.322ZM574.335 136.842L585.135 136.722C585.215 136.722 585.291 136.691 585.347 136.634C585.403 136.578 585.435 136.502 585.435 136.422V136.122C585.427 135.379 585.274 134.645 584.983 133.961C584.693 133.277 584.272 132.658 583.744 132.138C583.215 131.618 582.59 131.207 581.904 130.93C581.218 130.653 580.484 130.514 579.745 130.522H579.605C578.866 130.53 578.135 130.684 577.455 130.976C576.775 131.268 576.159 131.691 575.641 132.222C575.124 132.753 574.716 133.382 574.44 134.072C574.165 134.761 574.027 135.499 574.035 136.242V136.542C574.035 136.622 574.067 136.698 574.123 136.754C574.179 136.811 574.255 136.842 574.335 136.842Z" fill="#61615F"/>
<path d="M602.915 129.072C602.922 129.926 603.215 130.039 603.795 129.412C609.795 122.982 619.595 125.072 621.095 134.282C621.568 137.236 621.635 143.336 621.295 152.582C621.29 152.682 621.248 152.776 621.177 152.845C621.106 152.914 621.012 152.952 620.915 152.952L615.155 153.072C615.08 153.074 615.005 153.06 614.935 153.032C614.865 153.004 614.802 152.962 614.749 152.908C614.696 152.855 614.654 152.792 614.626 152.722C614.597 152.652 614.584 152.578 614.585 152.502C614.698 146.602 614.658 141.296 614.465 136.582C614.165 129.022 604.175 130.022 604.015 136.882C603.902 141.676 603.888 146.792 603.975 152.232C603.982 152.752 603.722 153.012 603.195 153.012L597.955 153.022C597.767 153.022 597.586 152.948 597.453 152.814C597.32 152.681 597.245 152.501 597.245 152.312L597.085 126.942C597.085 126.502 597.305 126.282 597.745 126.282L602.155 126.272C602.35 126.272 602.536 126.35 602.675 126.488C602.813 126.627 602.892 126.815 602.895 127.012L602.915 129.072Z" fill="#61615F"/>
<path d="M272.455 135.443C272.295 134.716 272.109 134.709 271.895 135.423L266.905 152.143C266.83 152.392 266.676 152.61 266.468 152.765C266.259 152.92 266.005 153.003 265.745 153.003L260.715 153.033C260.579 153.032 260.446 152.989 260.336 152.908C260.227 152.827 260.146 152.713 260.105 152.583L252.415 126.563C252.408 126.534 252.407 126.504 252.412 126.476C252.417 126.447 252.429 126.419 252.446 126.395C252.464 126.372 252.486 126.352 252.512 126.337C252.537 126.323 252.566 126.315 252.595 126.313L259.125 126.263C259.265 126.263 259.348 126.333 259.375 126.473L263.675 145.873C263.782 146.346 263.898 146.349 264.025 145.883L269.135 127.033C269.275 126.519 269.612 126.263 270.145 126.263L274.375 126.283C274.742 126.283 274.982 126.459 275.095 126.813C277.028 132.893 278.675 139.056 280.035 145.303C280.308 146.536 280.568 146.533 280.815 145.293C282.042 139.033 283.515 132.783 285.235 126.543C285.275 126.409 285.365 126.343 285.505 126.343L291.655 126.283C291.688 126.283 291.72 126.291 291.749 126.305C291.778 126.32 291.803 126.342 291.823 126.368C291.842 126.394 291.855 126.424 291.861 126.456C291.866 126.488 291.864 126.521 291.855 126.553L283.735 152.243C283.575 152.749 283.232 153.003 282.705 153.003L278.095 153.053C277.602 153.053 277.275 152.819 277.115 152.353C275.295 146.859 273.742 141.223 272.455 135.443Z" fill="#61615F"/>
<path d="M475.465 149.702C469.635 156.772 458.665 153.992 458.255 144.212C458.022 138.592 457.942 132.846 458.015 126.972C458.022 126.519 458.252 126.292 458.705 126.292L464.165 126.272C464.658 126.272 464.898 126.522 464.885 127.022C464.645 133.529 464.708 138.972 465.075 143.352C465.415 147.442 469.325 149.252 472.745 147.152C474.432 146.119 475.288 144.252 475.315 141.552C475.368 136.439 475.368 131.496 475.315 126.722C475.315 126.442 475.452 126.302 475.725 126.302L481.595 126.282C481.875 126.282 482.015 126.422 482.015 126.702L482.185 152.232C482.185 152.719 481.942 152.966 481.455 152.972L477.395 153.032C476.595 153.046 476.245 152.656 476.345 151.862C476.438 151.156 476.388 150.482 476.195 149.842C476.042 149.342 475.798 149.296 475.465 149.702Z" fill="#61615F"/>
<path d="M495.625 126.302H489.805C489.545 126.302 489.335 126.513 489.335 126.772V152.532C489.335 152.792 489.545 153.002 489.805 153.002H495.625C495.885 153.002 496.095 152.792 496.095 152.532V126.772C496.095 126.513 495.885 126.302 495.625 126.302Z" fill="#61615F"/>
<path d="M863.431 32.7767C872.22 32.7767 879.345 25.6521 879.345 16.8634C879.345 8.07479 872.22 0.950195 863.431 0.950195C854.643 0.950195 847.518 8.07479 847.518 16.8634C847.518 25.6521 854.643 32.7767 863.431 32.7767Z" fill="#D9BD2E"/>
<path d="M760.801 40.0374C769.606 40.0374 776.744 32.8991 776.744 24.0936C776.744 15.2882 769.606 8.1499 760.801 8.1499C751.995 8.1499 744.857 15.2882 744.857 24.0936C744.857 32.8991 751.995 40.0374 760.801 40.0374Z" fill="#3C5C98"/>
<path d="M867.526 54.1509C861.876 52.5359 856.13 53.0668 850.288 55.7434C845.389 57.9888 841.429 61.3631 837.255 64.9631C828.456 72.5475 817.724 77.6485 806.204 77.7095C795.721 77.7644 785.745 73.1149 777.172 66.519C777.072 66.4425 776.988 66.3469 776.925 66.2378C776.863 66.1287 776.822 66.0083 776.806 65.8835C776.79 65.7586 776.799 65.6319 776.833 65.5105C776.866 65.3892 776.923 65.2757 777.001 65.1766C780.192 61.1129 783.395 57.0309 787.593 54.0349C788.332 53.5102 788.96 53.5712 789.741 54.0776C794.83 57.3848 799.76 60.161 805.801 60.2892C812.708 60.4295 819.499 56.3048 824.905 52.058C829.439 48.5007 833.991 44.3942 838.805 41.5752C845.525 37.6336 852.792 35.5366 860.606 35.2844C880.65 34.6437 895.831 48.94 902.769 66.58C902.82 66.7108 902.825 66.8549 902.783 66.9875C902.741 67.12 902.654 67.2327 902.537 67.3061C897.969 70.2105 893.395 72.578 888.814 74.4085C888.58 74.503 888.318 74.5045 888.081 74.4128C887.845 74.3211 887.651 74.143 887.539 73.9143C883.335 65.3109 877.185 56.9149 867.526 54.1509Z" fill="#D9BD2E"/>
<path d="M739.011 78.6615C738.621 79.5239 738.216 80.372 737.797 81.2059C737.686 81.429 737.492 81.6001 737.256 81.6831C737.019 81.7662 736.758 81.7548 736.528 81.6513L722.525 75.3666C721.853 75.0656 721.664 74.5795 721.957 73.9083C727.522 61.1191 736.04 49.3184 749.598 44.4676C760.971 40.3977 775.14 42.5638 784.683 49.8676C785.26 50.3069 785.287 50.7767 784.762 51.2771L773.614 61.894C773.451 62.0487 773.246 62.1533 773.026 62.1955C772.805 62.2376 772.577 62.2156 772.369 62.132C757.03 55.9571 745.107 65.2133 739.011 78.6615Z" fill="#3C5C98"/>
<path d="M799.022 124.339C798.855 125.161 799.012 125.228 799.492 124.54C806.057 115.192 814.666 106.327 825.326 102.19C832.215 99.5233 841.978 99.5782 848.622 103.258C860.673 109.939 858.288 127.341 856.176 138.422C856.167 138.467 856.168 138.514 856.18 138.558C856.192 138.603 856.214 138.645 856.245 138.68C856.275 138.715 856.313 138.743 856.357 138.762C856.4 138.781 856.447 138.789 856.494 138.788C858.808 138.715 861.251 138.686 863.822 138.702C868.111 138.739 871.302 137.5 871.571 132.698C871.839 127.896 871.601 123.076 872.822 118.085C874.89 109.616 880.357 102.891 888.973 101.336C896.106 100.054 903.196 101.275 908.444 106.412C916.907 114.717 917.523 129.867 913.764 140.039C909.829 150.698 900.536 154.762 889.626 153.176C884.836 152.48 880.461 149.728 877.813 145.677C877.783 145.63 877.741 145.592 877.692 145.566C877.643 145.54 877.588 145.527 877.532 145.528C877.476 145.53 877.421 145.545 877.372 145.573C877.323 145.601 877.281 145.641 877.252 145.689C874.14 150.894 869.411 152.364 863.7 152.364C837.104 152.36 810.511 152.386 783.92 152.443C779.264 152.456 774.755 152.291 770.368 150.601C764.161 148.213 760.162 144.09 758.372 138.233C757.75 136.182 757.443 133.148 757.451 129.129C757.504 111.352 757.51 93.3403 757.469 75.0921C757.469 74.7748 757.628 74.6142 757.945 74.6101L770.569 74.5674C770.609 74.5674 770.649 74.5752 770.685 74.5903C770.722 74.6054 770.755 74.6275 770.783 74.6554C770.811 74.6832 770.833 74.7162 770.848 74.7524C770.862 74.7887 770.869 74.8274 770.868 74.8664C770.836 93.8752 770.838 112.823 770.875 131.71C770.887 136.573 774.682 138.44 778.953 138.623C781.418 138.729 783.94 138.759 786.519 138.715C786.59 138.713 786.656 138.683 786.705 138.632C786.754 138.581 786.782 138.512 786.782 138.44L786.757 105.436C786.757 105.383 786.768 105.331 786.788 105.282C786.808 105.233 786.838 105.189 786.875 105.151C786.913 105.114 786.957 105.084 787.006 105.064C787.055 105.044 787.107 105.033 787.16 105.033L799.919 105.027C799.988 105.027 800.055 105.055 800.104 105.106C800.153 105.156 800.181 105.224 800.181 105.296C800.153 109.266 800.134 113.256 800.126 117.267C800.12 119.628 799.492 122.002 799.022 124.339ZM892.591 112.923C884.458 113.978 883.988 124.937 885.013 131.222C885.684 135.365 887.783 139.203 892.231 139.923C903.098 141.68 903.727 128.775 902.586 121.788C901.713 116.431 898.486 112.154 892.591 112.923ZM835.553 113.832C827.822 113.057 819.401 118.713 813.538 124.186C809.022 128.397 804.987 133.111 801.432 138.33C801.406 138.369 801.391 138.414 801.389 138.46C801.386 138.507 801.396 138.553 801.418 138.594C801.439 138.635 801.471 138.669 801.51 138.692C801.549 138.715 801.594 138.727 801.639 138.727L841.447 138.721C841.536 138.721 841.622 138.691 841.692 138.637C841.762 138.583 841.811 138.507 841.831 138.422C842.726 134.748 843.403 131.098 843.863 127.469C844.705 120.837 843.686 114.649 835.553 113.832Z" fill="#3C5C98"/>
<path d="M732.074 138.391C732.11 134.376 732.104 130.33 732.056 126.254C732.031 124.241 731.773 122.303 731.281 120.44C729.688 114.393 725.417 113.246 719.718 113.264C716.342 113.272 712.998 113.28 709.687 113.288C709.624 113.288 709.563 113.263 709.518 113.217C709.474 113.171 709.449 113.109 709.449 113.044L709.455 101.573C709.455 101.317 709.583 101.185 709.839 101.176C715.839 101.034 720.287 101.061 723.184 101.256C739.14 102.33 745.156 113.624 745.192 128.317C745.217 136.237 745.233 144.13 745.241 151.998C745.241 152.044 745.232 152.09 745.214 152.133C745.197 152.176 745.171 152.215 745.138 152.248C745.105 152.281 745.066 152.307 745.023 152.325C744.98 152.342 744.934 152.351 744.887 152.351L709.632 152.388C709.582 152.388 709.533 152.368 709.498 152.333C709.463 152.297 709.443 152.249 709.443 152.199L709.473 139.031C709.473 138.824 709.577 138.72 709.784 138.72L731.726 138.732C731.817 138.732 731.905 138.697 731.97 138.633C732.035 138.569 732.072 138.482 732.074 138.391Z" fill="#3C5C98"/>
<path d="M697.221 142.906C697.245 158.502 691.772 174.409 674.938 177.369C672.554 177.792 669.534 177.979 665.877 177.93C665.576 177.93 665.425 177.78 665.425 177.479V166.538C665.425 166.493 665.442 166.449 665.473 166.417C665.504 166.385 665.546 166.367 665.59 166.367C667.988 166.318 670.557 166.16 672.857 165.422C684.249 161.785 683.84 146.817 683.828 137.427C683.816 128.185 683.814 118.617 683.822 108.725C683.822 108.673 683.842 108.623 683.879 108.586C683.915 108.55 683.965 108.529 684.017 108.529L696.837 108.517C697.109 108.517 697.245 108.653 697.245 108.926C697.213 120.702 697.205 132.029 697.221 142.906Z" fill="#3C5C98"/>
<path d="M854.529 173.86C854.549 173.873 854.572 173.881 854.595 173.883C854.619 173.884 854.643 173.879 854.664 173.867C854.685 173.856 854.702 173.839 854.714 173.818C854.726 173.797 854.731 173.774 854.73 173.75L854.706 161.144C854.706 161.021 854.754 160.903 854.84 160.816C854.926 160.729 855.042 160.68 855.164 160.68L863.981 160.711C864.078 160.711 864.171 160.749 864.239 160.818C864.308 160.887 864.347 160.98 864.347 161.077C864.302 171.804 864.304 182.077 864.353 191.896C864.361 194.048 864.43 196.214 864.56 198.395C864.572 198.598 864.477 198.7 864.273 198.7L856.39 198.718C856.31 198.718 856.231 198.701 856.158 198.667C856.085 198.634 856.02 198.586 855.967 198.525C855.914 198.465 855.874 198.394 855.851 198.316C855.827 198.239 855.819 198.158 855.829 198.077C855.914 197.357 855.875 196.615 855.713 195.85C855.702 195.798 855.676 195.751 855.639 195.713C855.601 195.675 855.554 195.648 855.502 195.636C855.451 195.624 855.396 195.626 855.346 195.644C855.296 195.661 855.252 195.693 855.219 195.734C851.564 200.378 844.669 200.305 840.471 196.351C836.285 192.397 835.638 185.063 837.438 179.833C839.94 172.554 848.006 169.515 854.529 173.86ZM854.725 183.223C854.732 182.715 854.639 182.211 854.451 181.739C854.263 181.267 853.984 180.836 853.63 180.472C853.276 180.108 852.853 179.817 852.387 179.616C851.92 179.415 851.419 179.308 850.911 179.301L850.337 179.293C849.829 179.286 849.325 179.379 848.853 179.567C848.381 179.755 847.95 180.034 847.586 180.388C847.222 180.742 846.931 181.164 846.73 181.631C846.529 182.098 846.422 182.599 846.415 183.107L846.352 187.61C846.345 188.118 846.438 188.622 846.626 189.094C846.814 189.566 847.093 189.997 847.447 190.361C847.801 190.725 848.224 191.016 848.69 191.217C849.157 191.418 849.658 191.525 850.166 191.532L850.74 191.54C851.248 191.547 851.752 191.454 852.224 191.266C852.696 191.078 853.127 190.799 853.491 190.445C853.855 190.091 854.146 189.669 854.347 189.202C854.548 188.735 854.655 188.234 854.662 187.726L854.725 183.223Z" fill="#D9BD2E"/>
<path d="M728.663 184.477C728.83 185.181 728.993 185.181 729.151 184.477C730.721 177.554 732.554 170.514 734.649 163.359C734.709 163.157 734.833 162.979 735.003 162.853C735.172 162.726 735.377 162.658 735.589 162.657L746.962 162.682C747.113 162.682 747.259 162.74 747.368 162.845C747.477 162.949 747.542 163.092 747.548 163.243L749.299 198.359C749.302 198.398 749.296 198.437 749.282 198.475C749.269 198.512 749.248 198.546 749.22 198.575C749.193 198.604 749.16 198.628 749.123 198.644C749.086 198.66 749.047 198.669 749.006 198.67L740.421 198.737C740.153 198.741 740.014 198.609 740.006 198.34C739.656 189.733 739.433 181.066 739.335 172.341C739.335 172.247 739.298 172.178 739.225 172.133C739.205 172.125 739.182 172.121 739.158 172.121C739.093 172.129 739.05 172.168 739.03 172.237C736.801 180.56 734.443 188.937 731.958 197.37C731.836 197.785 731.555 197.994 731.116 197.999L724.758 198.005C724.481 198.005 724.311 197.87 724.246 197.602C722.094 189.214 720.22 180.95 718.626 172.811C718.616 172.759 718.589 172.713 718.549 172.678C718.51 172.643 718.459 172.621 718.406 172.615C718.235 172.599 718.148 172.644 718.144 172.75C717.9 180.893 717.572 189.464 717.161 198.462C717.157 198.592 717.09 198.657 716.96 198.657L709.016 198.743C708.548 198.747 708.328 198.517 708.357 198.053L710.511 162.847C710.514 162.79 710.538 162.738 710.579 162.699C710.62 162.661 710.674 162.639 710.73 162.639L722.921 162.676C723.349 162.68 723.611 162.889 723.709 163.304L728.663 184.477Z" fill="#D9BD2E"/>
<path d="M769.709 196.875C769.702 196.834 769.684 196.795 769.657 196.762C769.63 196.73 769.596 196.704 769.557 196.689C769.519 196.674 769.477 196.669 769.436 196.675C769.395 196.681 769.357 196.697 769.325 196.723C766.359 199.009 763.225 199.786 759.922 199.054C754.162 197.785 751.837 191.549 754.534 186.515C756.908 182.085 763.357 180.84 767.97 180.84C768.637 180.84 768.857 180.529 768.629 179.907C768.564 179.736 768.464 179.589 768.33 179.467C767.781 178.983 767.1 178.682 766.286 178.564C763.447 178.149 760.567 178.587 757.646 179.876C757.182 180.075 756.881 179.935 756.743 179.455L755.334 174.525C755.303 174.415 755.313 174.299 755.361 174.197C755.409 174.095 755.493 174.014 755.596 173.97C759.477 172.29 763.481 171.594 767.61 171.883C774.822 172.395 778.41 176.557 778.306 183.616C778.245 187.81 778.274 191.86 778.392 195.765C778.416 196.611 778.53 197.455 778.734 198.297C778.746 198.345 778.746 198.396 778.736 198.445C778.726 198.493 778.705 198.539 778.674 198.578C778.644 198.618 778.604 198.65 778.56 198.672C778.515 198.694 778.466 198.706 778.416 198.706L770.484 198.724C770.358 198.725 770.236 198.68 770.139 198.599C770.042 198.517 769.976 198.404 769.953 198.279L769.709 196.875ZM764.785 187.375C762.497 188.333 761.905 192.44 765.133 192.537C768.696 192.641 769.453 190.035 768.898 187.107C768.881 187.012 768.832 186.926 768.759 186.863C768.685 186.799 768.592 186.763 768.495 186.759C767.112 186.714 765.875 186.92 764.785 187.375Z" fill="#D9BD2E"/>
<path d="M793.512 189.737C788.929 188.187 783.468 186.326 783.548 180.584C783.597 176.868 785.94 174.208 789.326 172.817C793.182 171.237 798.088 171.719 801.987 172.975C802.504 173.142 802.701 173.49 802.579 174.019L801.377 179.272C801.361 179.34 801.331 179.404 801.288 179.459C801.245 179.514 801.19 179.559 801.128 179.59C801.065 179.622 800.997 179.639 800.927 179.641C800.857 179.643 800.788 179.63 800.724 179.602C798.631 178.687 795.312 177.802 793.182 178.986C793.051 179.058 792.938 179.161 792.854 179.285C792.771 179.41 792.717 179.552 792.7 179.701C792.682 179.85 792.7 180.002 792.752 180.142C792.804 180.283 792.889 180.41 792.999 180.511C794.275 181.683 796.874 182.36 798.497 183.031C802.089 184.52 803.862 187.083 803.818 190.719C803.75 196.186 799.064 198.597 794.287 199.072C790.63 199.434 787.034 199.02 783.499 197.828C783.341 197.774 783.208 197.663 783.125 197.517C783.042 197.371 783.014 197.2 783.047 197.034L784.256 191.25C784.273 191.164 784.311 191.083 784.365 191.014C784.419 190.945 784.488 190.889 784.567 190.851C784.646 190.812 784.733 190.793 784.82 190.793C784.908 190.794 784.995 190.814 785.073 190.853C788.01 192.322 790.882 192.824 793.689 192.361C793.866 192.332 794.034 192.263 794.182 192.16C794.329 192.057 794.451 191.922 794.54 191.765C794.628 191.609 794.68 191.434 794.692 191.254C794.705 191.074 794.677 190.893 794.61 190.725C794.423 190.249 794.057 189.92 793.512 189.737Z" fill="#D9BD2E"/>
<path d="M823.264 197.199C823.162 196.743 822.924 196.658 822.55 196.943C817.986 200.415 811.579 200.256 808.138 195.46C807.503 194.569 807.112 193.446 806.966 192.092C806.026 183.403 814.672 180.853 821.506 180.865C821.617 180.865 821.726 180.835 821.821 180.778C821.916 180.721 821.994 180.639 822.046 180.541C822.098 180.443 822.122 180.333 822.117 180.222C822.111 180.112 822.075 180.005 822.013 179.913C821.541 179.213 820.88 178.782 820.03 178.619C816.999 178.046 814.005 178.489 811.048 179.949C810.969 179.989 810.883 180.01 810.795 180.012C810.707 180.014 810.62 179.997 810.54 179.961C810.459 179.926 810.388 179.873 810.33 179.806C810.272 179.74 810.23 179.662 810.206 179.577L808.858 174.909C808.789 174.676 808.811 174.426 808.918 174.208C809.025 173.99 809.211 173.82 809.437 173.732C815.948 171.206 827.468 169.833 830.879 178.046C831.538 179.632 831.83 182.118 831.757 185.502C831.666 189.883 831.702 194.173 832.123 198.499C832.126 198.528 832.122 198.558 832.113 198.586C832.104 198.614 832.089 198.64 832.069 198.662C832.05 198.684 832.026 198.701 832 198.713C831.973 198.725 831.945 198.731 831.916 198.73L824.014 198.682C823.733 198.682 823.563 198.545 823.502 198.273L823.264 197.199ZM820.396 192.324C822.525 191.5 822.769 189.145 822.428 187.143C822.387 186.916 822.255 186.794 822.031 186.777C819.127 186.558 815.929 187.528 816.369 191.158C816.396 191.374 816.502 191.574 816.668 191.72C817.733 192.672 818.976 192.873 820.396 192.324Z" fill="#D9BD2E"/>
<path d="M878.545 189.749C880.309 193.196 888.528 192.141 891.377 191.451C891.963 191.309 892.301 191.534 892.39 192.128L893.177 197.266C893.194 197.374 893.172 197.484 893.115 197.577C893.058 197.669 892.97 197.739 892.866 197.772C887.594 199.426 881.273 199.89 876.343 197.913C870.705 195.655 868.471 189.785 869.179 184.001C870.131 176.221 876.3 171.071 884.037 171.865C892.951 172.786 895.593 180.724 894.501 188.534C894.487 188.637 894.435 188.732 894.357 188.8C894.279 188.868 894.178 188.906 894.074 188.907L879.058 188.913C878.431 188.913 878.261 189.191 878.545 189.749ZM878.716 182.518L885.617 182.347C885.676 182.347 885.735 182.334 885.789 182.311C885.843 182.287 885.892 182.253 885.933 182.21C885.973 182.168 886.005 182.118 886.027 182.062C886.048 182.007 886.058 181.949 886.057 181.89L886.05 181.835C886.025 180.826 885.599 179.868 884.865 179.173C884.132 178.477 883.151 178.1 882.139 178.125H881.981C881.479 178.138 880.985 178.249 880.526 178.452C880.068 178.655 879.654 178.946 879.308 179.309C878.962 179.672 878.692 180.099 878.512 180.565C878.332 181.032 878.246 181.53 878.259 182.03V182.085C878.26 182.143 878.273 182.201 878.297 182.255C878.321 182.308 878.355 182.356 878.398 182.396C878.44 182.437 878.49 182.468 878.545 182.489C878.599 182.51 878.658 182.52 878.716 182.518Z" fill="#D9BD2E"/>
<path d="M907.51 176.087C907.628 176.653 907.832 176.687 908.12 176.191C909.975 173.022 912.514 171.564 915.735 171.816C915.977 171.834 916.202 171.942 916.368 172.118C916.534 172.294 916.628 172.526 916.632 172.768L916.76 180.505C916.761 180.556 916.75 180.606 916.73 180.653C916.709 180.699 916.679 180.74 916.642 180.774C916.604 180.808 916.56 180.833 916.512 180.847C916.464 180.862 916.413 180.866 916.364 180.859C913.014 180.383 908.871 181.188 908.846 185.423C908.822 189.486 908.81 193.798 908.81 198.358C908.81 198.436 908.779 198.511 908.724 198.565C908.669 198.62 908.595 198.651 908.517 198.651L899.377 198.743C899.218 198.743 899.139 198.663 899.139 198.505L899.047 172.737C899.047 172.691 899.056 172.645 899.074 172.603C899.092 172.56 899.118 172.522 899.151 172.489C899.184 172.457 899.223 172.431 899.266 172.414C899.309 172.397 899.355 172.389 899.401 172.39L906.558 172.438C906.669 172.439 906.778 172.462 906.879 172.507C906.98 172.552 907.07 172.618 907.145 172.7C907.219 172.781 907.276 172.878 907.312 172.983C907.347 173.089 907.361 173.2 907.352 173.311C907.27 174.279 907.323 175.204 907.51 176.087Z" fill="#D9BD2E"/>
</svg>
