<svg width="917" height="200" viewBox="0 0 917 200" fill="none" xmlns="http://www.w3.org/2000/svg">
<g clip-path="url(#clip0_209_2)">
<path d="M331.536 44.352C330.006 41.282 331.196 37.492 334.766 36.672C337.126 36.132 339.356 36.6187 341.456 38.132C341.538 38.1918 341.607 38.2673 341.66 38.3539C341.712 38.4405 341.747 38.5365 341.762 38.6362C341.777 38.736 341.772 38.8374 341.747 38.9346C341.722 39.0318 341.677 39.1227 341.616 39.202C340.443 40.7287 338.806 41.1753 336.706 40.542C336.462 40.4694 336.202 40.4655 335.956 40.5308C335.709 40.596 335.484 40.7279 335.306 40.912C334.253 42.012 334.776 43.2753 336.876 44.702C337.092 44.8461 337.343 44.9323 337.606 44.952L341.396 45.162C341.929 45.1887 342.189 45.4687 342.176 46.002L342.126 48.642C342.119 49.1887 341.843 49.462 341.296 49.462L330.236 49.492C329.636 49.492 329.343 49.192 329.356 48.592L329.436 45.872C329.442 45.6824 329.516 45.5012 329.644 45.3617C329.773 45.2221 329.947 45.1335 330.136 45.112L331.186 45.002C331.606 44.9487 331.723 44.732 331.536 44.352Z" fill="white"/>
<path d="M45.785 91.1914C42.4717 95.2514 37.335 96.7881 30.375 95.8014C27.635 95.4081 25.7117 94.1847 24.605 92.1314C24.3784 91.7114 24.1117 91.6814 23.805 92.0414C19.645 96.9148 14.3284 97.8981 7.85504 94.9914C3.99504 93.2581 1.56171 89.8214 0.55504 84.6814C-1.56496 73.9314 2.20504 61.5814 15.035 61.3714C19.775 61.2848 24.505 61.2614 29.225 61.3014C29.401 61.3041 29.5689 61.3758 29.6924 61.5012C29.8158 61.6265 29.8851 61.7955 29.885 61.9714V84.5614C29.8784 85.5214 30.3384 86.1248 31.265 86.3714C32.2117 86.6248 33.2284 86.7614 34.315 86.7814C40.005 86.9014 40.365 83.2914 40.385 78.4714C40.4384 66.9848 40.435 55.5348 40.375 44.1214C40.375 43.5881 40.6417 43.3214 41.175 43.3214L48.705 43.2814C49.2717 43.2748 49.5417 43.5548 49.515 44.1214C49.475 45.0414 49.455 45.9248 49.455 46.7714C49.4817 57.4781 49.5217 68.8114 49.575 80.7714C49.595 86.0214 53.705 88.0014 58.275 86.3114C59.7817 85.7581 60.5384 84.4214 60.545 82.3014C60.555 77.8914 60.795 73.1614 62.675 69.1914C68.055 57.8714 85.255 58.5114 89.265 70.9014C92.155 79.8214 90.805 93.6214 79.905 96.2714C73.4784 97.8314 68.4717 96.3348 64.885 91.7814C64.5917 91.4014 64.325 91.4214 64.085 91.8414C63.0984 93.5814 61.715 94.7381 59.935 95.3114C54.015 97.2048 49.545 95.8414 46.525 91.2214C46.2984 90.8748 46.0517 90.8648 45.785 91.1914ZM75.6944 88.0013C76.531 87.9969 77.358 87.7487 78.1283 87.2707C78.8987 86.7928 79.5973 86.0945 80.1842 85.2158C80.7711 84.337 81.2348 83.295 81.549 82.1492C81.8631 81.0035 82.0214 79.7764 82.0149 78.538C82.0085 77.2997 81.8373 76.0743 81.5112 74.9319C81.185 73.7895 80.7104 72.7524 80.1143 71.8799C79.5182 71.0073 78.8124 70.3164 78.0371 69.8466C77.2617 69.3767 76.4322 69.1371 75.5956 69.1415C74.7591 69.1459 73.9321 69.3942 73.1617 69.8721C72.3914 70.3501 71.6928 71.0484 71.1059 71.9271C70.519 72.8059 70.0552 73.8479 69.7411 74.9936C69.427 76.1394 69.2687 77.3665 69.2751 78.6048C69.2816 79.8432 69.4528 81.0685 69.7789 82.2109C70.105 83.3534 70.5797 84.3904 71.1758 85.263C71.7719 86.1355 72.4777 86.8265 73.253 87.2963C74.0283 87.7661 74.8579 88.0057 75.6944 88.0013ZM13.415 69.7914C8.55504 70.6914 8.31504 78.7214 9.06504 82.5114C10.535 89.8814 21.045 88.2814 20.805 81.2914C20.6717 77.3581 20.665 73.6648 20.785 70.2114C20.805 69.7914 20.605 69.5648 20.185 69.5314C17.5984 69.3448 15.3417 69.4314 13.415 69.7914Z" fill="white"/>
<path d="M128.054 84.3915L121.514 76.5515C121.385 76.3964 121.205 76.2917 121.004 76.2552C120.804 76.2188 120.595 76.2528 120.414 76.3515L118.534 77.4115C118.074 77.6649 117.847 77.5315 117.854 77.0115L117.884 69.2015C117.884 68.5882 118.144 68.1249 118.664 67.8115C127.497 62.4115 136.341 60.9982 145.194 63.5715C148.741 64.5982 151.127 66.7282 152.354 69.9615C154.654 76.0015 151.464 81.6215 146.544 85.2015C145.384 86.0482 145.521 86.5182 146.954 86.6115C150.927 86.8649 154.887 86.8749 158.834 86.6415C161.044 86.5115 163.674 85.2515 163.684 82.7115C163.764 70.1049 163.764 57.1149 163.684 43.7415C163.684 43.4282 163.841 43.2749 164.154 43.2815L172.414 43.3415C172.767 43.3415 172.941 43.5182 172.934 43.8715C172.774 54.5649 172.764 65.0749 172.904 75.4015C172.991 81.5082 172.631 85.5215 171.824 87.4415C169.744 92.4082 165.641 95.2082 159.514 95.8415C153.981 96.4149 148.271 96.3482 142.384 95.6415C139.854 95.3415 137.564 94.2715 135.384 92.9815C135.102 92.8108 134.782 92.7084 134.451 92.6824C134.119 92.6564 133.785 92.7074 133.474 92.8315C124.324 96.4715 104.314 99.9915 99.2343 87.7615C98.4276 85.8282 98.0409 83.0282 98.0743 79.3615C98.1943 67.1082 98.2176 55.2715 98.1443 43.8515C98.1443 43.4782 98.3309 43.2949 98.7043 43.3015L106.664 43.3315C107.071 43.3315 107.274 43.5349 107.274 43.9415C107.207 55.8482 107.191 67.2049 107.224 78.0115C107.244 82.1015 106.394 86.2915 112.374 86.6815C118.707 87.0882 123.864 86.5815 127.844 85.1615C128.284 85.0015 128.354 84.7449 128.054 84.3915ZM143.044 76.4715C143.477 75.9801 143.708 75.3428 143.69 74.6891C143.671 74.0353 143.404 73.4141 142.944 72.9515C140.264 70.2215 132.734 71.4015 129.524 72.4415C129.505 72.4461 129.487 72.4557 129.472 72.4696C129.458 72.4835 129.447 72.5011 129.441 72.521C129.435 72.5408 129.434 72.5622 129.438 72.5833C129.442 72.6043 129.451 72.6243 129.464 72.6415L136.364 81.0815C136.438 81.166 136.538 81.223 136.647 81.243C136.756 81.263 136.868 81.2449 136.964 81.1915C139.471 79.8049 141.497 78.2315 143.044 76.4715Z" fill="white"/>
<path d="M189.834 43.3125H181.534C181.33 43.3125 181.164 43.4781 181.164 43.6825V95.7425C181.164 95.9468 181.33 96.1125 181.534 96.1125H189.834C190.038 96.1125 190.204 95.9468 190.204 95.7425V43.6825C190.204 43.4781 190.038 43.3125 189.834 43.3125Z" fill="white"/>
<path d="M328.346 86.3212C332.156 87.7312 347.396 91.3213 349.106 86.1313C349.666 84.438 349.943 82.4847 349.936 80.2713C349.896 67.8247 349.879 55.7047 349.886 43.9113C349.886 43.5447 350.069 43.3579 350.436 43.3512L358.346 43.2812C358.739 43.2812 358.939 43.478 358.946 43.8713C359.093 55.118 359.089 67.7547 358.936 81.7813C358.836 90.6113 354.856 97.1313 345.206 97.7713C338.519 98.218 331.923 97.1545 325.416 94.5812C325.069 94.4479 324.956 94.2079 325.076 93.8612L327.606 86.6812C327.733 86.3079 327.979 86.1879 328.346 86.3212Z" fill="white"/>
<path d="M375.975 43.3223H367.735C367.498 43.3223 367.305 43.5148 367.305 43.7523V95.6523C367.305 95.8898 367.498 96.0823 367.735 96.0823H375.975C376.213 96.0823 376.405 95.8898 376.405 95.6523V43.7523C376.405 43.5148 376.213 43.3223 375.975 43.3223Z" fill="white"/>
<path d="M455.625 43.3223H447.385C447.114 43.3223 446.895 43.5417 446.895 43.8123V95.6123C446.895 95.8829 447.114 96.1023 447.385 96.1023H455.625C455.896 96.1023 456.115 95.8829 456.115 95.6123V43.8123C456.115 43.5417 455.896 43.3223 455.625 43.3223Z" fill="white"/>
<path d="M623.025 43.293H615.045C614.73 43.293 614.475 43.5482 614.475 43.863V82.723C614.475 83.0378 614.73 83.293 615.045 83.293H623.025C623.34 83.293 623.595 83.0378 623.595 82.723V43.863C623.595 43.5482 623.34 43.293 623.025 43.293Z" fill="white"/>
<path d="M628.014 88.5433C631.224 88.2633 632.124 85.3934 632.134 82.6834C632.207 69.71 632.224 56.7534 632.184 43.8134C632.184 43.6861 632.235 43.564 632.325 43.474C632.415 43.3839 632.537 43.3334 632.664 43.3334L640.904 43.2734C641.016 43.2734 641.122 43.3176 641.201 43.3964C641.28 43.4751 641.324 43.582 641.324 43.6934C641.371 55.5667 641.377 67.8167 641.344 80.4434C641.324 88.7434 638.454 96.5734 628.984 97.5934C621.677 98.38 614.581 97.3534 607.694 94.5134C607.549 94.4546 607.431 94.3422 607.368 94.2001C607.304 94.058 607.299 93.8977 607.354 93.7534L609.914 86.7234C610.034 86.3767 610.267 86.2633 610.614 86.3833C616.221 88.3433 622.021 89.0633 628.014 88.5433Z" fill="white"/>
<path d="M15.0056 43.582H9.80555C9.32506 43.582 8.93555 43.9715 8.93555 44.452V51.972C8.93555 52.4525 9.32506 52.842 9.80555 52.842H15.0056C15.486 52.842 15.8756 52.4525 15.8756 51.972V44.452C15.8756 43.9715 15.486 43.582 15.0056 43.582Z" fill="white"/>
<path d="M25.0141 43.6426H19.2141C18.9104 43.6426 18.6641 43.8888 18.6641 44.1926V52.2526C18.6641 52.5564 18.9104 52.8026 19.2141 52.8026H25.0141C25.3179 52.8026 25.5641 52.5564 25.5641 52.2526V44.1926C25.5641 43.8888 25.3179 43.6426 25.0141 43.6426Z" fill="white"/>
<path d="M510.073 43.6567L504.253 43.6465C503.949 43.646 503.703 43.8918 503.702 44.1956L503.688 52.2356C503.688 52.5393 503.933 52.786 504.237 52.7865L510.057 52.7967C510.361 52.7972 510.608 52.5514 510.608 52.2476L510.622 44.2077C510.623 43.9039 510.377 43.6572 510.073 43.6567Z" fill="white"/>
<path d="M519.687 43.6816L514.107 43.6426C513.753 43.6402 513.465 43.9247 513.462 44.2782L513.408 52.118C513.405 52.4714 513.69 52.7599 514.043 52.7624L519.623 52.8014C519.976 52.8038 520.265 52.5193 520.267 52.1659L520.322 44.326C520.325 43.9726 520.04 43.6841 519.687 43.6816Z" fill="white"/>
<path d="M538.146 43.6113H532.425C532.11 43.6113 531.855 43.8665 531.855 44.1813V52.2413C531.855 52.5561 532.11 52.8113 532.425 52.8113H538.146C538.461 52.8113 538.716 52.5561 538.716 52.2413V44.1813C538.716 43.8665 538.461 43.6113 538.146 43.6113Z" fill="white"/>
<path d="M547.659 43.582L542.299 43.6007C541.846 43.6023 541.48 43.9707 541.482 44.4236L541.509 52.0835C541.51 52.5364 541.879 52.9023 542.331 52.9007L547.691 52.882C548.144 52.8804 548.51 52.512 548.509 52.0591L548.482 44.3992C548.48 43.9463 548.112 43.5804 547.659 43.582Z" fill="white"/>
<path d="M340.826 52.0527H332.626C332.378 52.0527 332.176 52.2542 332.176 52.5028V82.8227C332.176 83.0713 332.378 83.2727 332.626 83.2727H340.826C341.075 83.2727 341.276 83.0713 341.276 82.8227V52.5028C341.276 52.2542 341.075 52.0527 340.826 52.0527Z" fill="white"/>
<path d="M501.465 86.1426C494.985 79.7526 494.835 69.5226 501.985 63.5826C510.925 56.1526 525.725 60.8126 527.085 73.0926C527.658 78.266 526.092 82.6426 522.385 86.2226C522.341 86.2634 522.31 86.3164 522.297 86.3748C522.283 86.4333 522.287 86.4944 522.309 86.5503C522.331 86.6063 522.368 86.6546 522.418 86.6888C522.467 86.7231 522.525 86.7419 522.585 86.7426C525.292 86.856 528.045 86.8326 530.845 86.6726C534.935 86.4426 535.605 82.7826 535.585 79.3826C535.552 72.9093 535.568 66.9826 535.635 61.6026C535.635 61.396 535.742 61.2926 535.955 61.2926L544.375 61.3026C544.568 61.3026 544.665 61.3993 544.665 61.5926C544.618 68.8326 544.645 75.396 544.745 81.2826C544.805 84.8226 546.588 86.6426 550.095 86.7426C554.035 86.8493 557.802 86.8493 561.395 86.7426C561.527 86.7375 561.651 86.6814 561.743 86.5864C561.834 86.4913 561.885 86.3645 561.885 86.2326L561.855 68.3726C561.855 67.986 562.048 67.796 562.435 67.8026L570.395 67.9326C570.547 67.9353 570.692 67.9975 570.799 68.106C570.905 68.2145 570.965 68.3605 570.965 68.5126L570.915 86.2926C570.915 86.6393 571.088 86.8093 571.435 86.8026L577.615 86.7526C577.975 86.7526 578.155 86.5726 578.155 86.2126C578.208 79.966 577.888 73.6493 577.195 67.2626C577.155 66.896 577.315 66.6693 577.675 66.5826L584.985 64.8626C585.345 64.776 585.578 64.9093 585.685 65.2626C585.885 65.956 586.028 66.6593 586.115 67.3726C586.862 73.226 587.155 79.256 586.995 85.4626C586.962 86.616 587.522 87.116 588.675 86.9626L591.525 86.5826C592.098 86.5056 592.628 86.2359 593.028 85.818C593.428 85.4001 593.674 84.8587 593.725 84.2826C594.432 76.1893 593.582 69.1026 591.175 63.0226C590.962 62.476 591.115 62.0693 591.635 61.8026L597.925 58.5626C598.605 58.216 599.085 58.3993 599.365 59.1126C601.638 64.9393 602.898 71.4893 603.145 78.7626C603.258 82.0226 602.948 84.836 602.215 87.2026C600.035 94.2326 594.765 96.1727 588.025 96.1627C573.972 96.156 561.478 96.146 550.545 96.1326C546.752 96.1326 543.902 94.616 541.995 91.5826C541.662 91.056 541.285 91.016 540.865 91.4626C538.305 94.1893 535.202 95.6893 531.555 95.9626C526.902 96.3226 522.272 96.306 517.665 95.9127C515.972 95.7727 514.382 95.286 512.895 94.4526C512.65 94.3163 512.376 94.2398 512.096 94.2294C511.816 94.219 511.538 94.2749 511.285 94.3926C508.705 95.5993 505.698 96.196 502.265 96.1826C489.892 96.1426 477.372 96.1226 464.705 96.1226C464.619 96.1227 464.537 96.0893 464.475 96.0295C464.414 95.9698 464.378 95.8884 464.375 95.8026L464.295 87.1126C464.294 87.0764 464.3 87.0402 464.313 87.0063C464.327 86.9724 464.347 86.9415 464.373 86.9153C464.4 86.8892 464.431 86.8684 464.466 86.8542C464.5 86.84 464.537 86.8327 464.575 86.8326L478.955 86.7926C479.355 86.7926 479.568 86.5926 479.595 86.1926C479.888 81.206 479.708 77.2726 479.055 74.3926C477.645 68.1926 469.395 69.5026 464.705 69.6026C464.472 69.6093 464.355 69.496 464.355 69.2626L464.385 61.7426C464.385 61.4826 464.515 61.346 464.775 61.3326C467.622 61.2393 470.425 61.2726 473.185 61.4326C488.055 62.3126 488.925 74.2826 488.565 86.0526C488.552 86.566 488.802 86.8226 489.315 86.8226L501.195 86.8126C501.822 86.8126 501.912 86.5893 501.465 86.1426ZM512.385 84.0226C515.915 81.3826 519.465 76.3626 517.625 71.8326C516.065 68.0126 510.985 67.0826 508.015 69.6026C502.955 73.8826 507.265 80.9426 511.465 84.0226C511.772 84.2493 512.078 84.2493 512.385 84.0226Z" fill="white"/>
<path d="M259.005 69.5629C253.655 69.6729 251.535 71.1328 251.495 76.7629C251.455 83.1295 251.452 89.4395 251.485 95.6929C251.486 95.7515 251.476 95.8098 251.455 95.8643C251.433 95.9189 251.401 95.9685 251.36 96.0105C251.319 96.0524 251.27 96.0857 251.216 96.1084C251.162 96.1312 251.104 96.1429 251.045 96.1429C244.578 96.1562 237.452 96.1729 229.665 96.1929C221.605 96.2129 216.322 93.1129 213.815 86.8929C211.795 81.8629 212.575 74.2629 212.475 68.3029C212.475 68.1495 212.548 68.0728 212.695 68.0728C216.742 67.9262 219.495 67.9895 220.955 68.2628C221.002 68.2762 221.025 68.3062 221.025 68.3528C220.905 72.3395 220.912 76.2229 221.045 80.0029C221.198 84.4229 223.472 86.6795 227.865 86.7729C232.792 86.8662 237.518 86.8629 242.045 86.7629C242.152 86.7602 242.254 86.7159 242.329 86.6393C242.403 86.5627 242.445 86.4599 242.445 86.3528C242.465 81.4428 241.905 76.2629 243.165 71.6929C246.525 59.5129 258.455 61.1929 268.415 61.3129C268.543 61.3155 268.665 61.3672 268.755 61.4569C268.845 61.5467 268.895 61.6673 268.895 61.7928L268.905 86.7729C268.905 87.2595 268.658 87.4995 268.165 87.4929L260.355 87.3629C260.187 87.3602 260.027 87.2916 259.909 87.1719C259.791 87.0522 259.725 86.8909 259.725 86.7229V70.2629C259.725 70.1692 259.706 70.0765 259.67 69.9903C259.634 69.904 259.58 69.826 259.513 69.7607C259.446 69.6954 259.366 69.6443 259.279 69.6103C259.192 69.5763 259.099 69.5602 259.005 69.5629Z" fill="white"/>
<path d="M301.336 86.8424C306.136 86.8424 310.936 87.2024 310.946 80.8224C310.953 74.3624 310.949 68.0991 310.936 62.0324C310.936 61.5458 311.179 61.3024 311.666 61.3024L319.246 61.2924C319.368 61.291 319.488 61.3143 319.601 61.3607C319.713 61.4072 319.815 61.476 319.9 61.5629C319.985 61.6498 320.051 61.7531 320.095 61.8665C320.139 61.9798 320.16 62.1009 320.156 62.2224C320.029 66.2491 320.026 70.4391 320.146 74.7924C320.299 80.2324 319.949 84.1724 319.096 86.6124C316.863 92.9724 311.646 96.1524 303.446 96.1524C294.273 96.1591 285.459 96.1591 277.006 96.1524C276.881 96.1524 276.762 96.1029 276.674 96.0148C276.586 95.9266 276.536 95.8071 276.536 95.6824L276.576 87.1924C276.576 87.0917 276.617 86.995 276.69 86.9237C276.763 86.8525 276.863 86.8124 276.966 86.8124L291.346 86.8324C291.488 86.8325 291.623 86.7769 291.724 86.6778C291.825 86.5787 291.883 86.4439 291.886 86.3024C291.966 82.9358 291.899 79.6758 291.686 76.5224C291.446 73.0924 289.896 70.2024 286.326 69.8224C283.436 69.5124 280.606 69.4224 277.676 69.6624C276.896 69.7291 276.513 69.3691 276.526 68.5824L276.616 62.4124C276.629 61.5924 277.049 61.1991 277.876 61.2324C282.076 61.3924 286.666 60.9924 290.576 62.3124C300.956 65.8224 301.206 76.8124 300.746 86.2224C300.726 86.6358 300.923 86.8424 301.336 86.8424Z" fill="white"/>
<path d="M409.695 81.7823C408.095 70.0323 414.915 58.6923 428.265 61.6823C438.095 63.8923 440.535 75.2523 439.005 84.0023C437.265 93.9223 428.305 98.2023 419.145 95.2923C415.958 94.279 412.648 93.0023 409.215 91.4623C408.994 91.3624 408.755 91.3112 408.512 91.3121C408.27 91.313 408.031 91.3659 407.811 91.4674C407.591 91.5689 407.395 91.7165 407.237 91.9002C407.079 92.084 406.962 92.2996 406.895 92.5323C406.675 93.299 406.598 94.119 406.665 94.9923C407.158 101.672 407.688 107.592 408.255 112.752C408.265 112.836 408.257 112.921 408.232 113.001C408.207 113.081 408.165 113.156 408.109 113.219C408.054 113.282 407.986 113.333 407.909 113.368C407.832 113.403 407.749 113.421 407.665 113.422L400.415 113.512C400.002 113.519 399.775 113.316 399.735 112.902C399.022 106.289 398.542 100.079 398.295 94.2723C398.005 87.3323 400.885 80.9823 409.165 82.3023C409.235 82.3138 409.307 82.3086 409.375 82.2868C409.443 82.2651 409.505 82.2276 409.557 82.1772C409.608 82.1267 409.647 82.0649 409.671 81.9963C409.695 81.9278 409.704 81.8546 409.695 81.7823ZM420.865 70.4923C417.295 73.5523 417.965 81.0723 419.255 85.3223C419.375 85.729 419.632 86.0156 420.025 86.1823C424.045 87.8423 429.065 87.4423 430.255 82.3723C431.055 78.9723 430.985 72.8823 427.815 70.4923C425.855 69.0123 422.825 68.8323 420.865 70.4923Z" fill="white"/>
<path d="M614.665 107.682C614.455 106.612 613.865 105.612 613.995 104.512C614.705 98.9124 621.235 98.5025 624.765 101.472C624.899 101.584 624.985 101.742 625.006 101.915C625.026 102.088 624.98 102.263 624.875 102.402C623.495 104.212 621.965 104.212 619.975 103.832C619.7 103.781 619.416 103.803 619.151 103.896C618.887 103.989 618.652 104.15 618.471 104.362C618.289 104.574 618.167 104.83 618.117 105.104C618.067 105.378 618.09 105.66 618.185 105.922C619.005 108.252 622.465 108.482 624.565 108.312C625.105 108.272 625.379 108.522 625.385 109.062L625.425 112.052C625.425 112.419 625.245 112.602 624.885 112.602L613.255 112.732C612.829 112.739 612.615 112.532 612.615 112.112L612.625 108.802C612.632 108.462 612.802 108.292 613.135 108.292L614.145 108.302C614.565 108.302 614.739 108.096 614.665 107.682Z" fill="white"/>
<path d="M231.319 100.572L225.859 100.591C225.45 100.593 225.12 100.925 225.121 101.334L225.148 109.074C225.15 109.482 225.482 109.813 225.891 109.811L231.351 109.792C231.76 109.791 232.09 109.458 232.088 109.049L232.061 101.309C232.06 100.901 231.728 100.571 231.319 100.572Z" fill="white"/>
<path d="M241.062 100.638L235.522 100.629C235.169 100.628 234.882 100.914 234.881 101.267L234.867 109.147C234.867 109.501 235.153 109.788 235.506 109.789L241.046 109.798C241.4 109.799 241.687 109.513 241.687 109.159L241.701 101.279C241.702 100.926 241.416 100.639 241.062 100.638Z" fill="white"/>
<path d="M309.437 100.588L303.817 100.598C303.464 100.598 303.178 100.885 303.178 101.239L303.192 109.139C303.193 109.492 303.48 109.778 303.833 109.778L309.453 109.768C309.806 109.767 310.093 109.48 310.092 109.127L310.078 101.227C310.077 100.873 309.79 100.587 309.437 100.588Z" fill="white"/>
<path d="M319.134 100.652H313.514C313.183 100.652 312.914 100.921 312.914 101.252V109.192C312.914 109.524 313.183 109.792 313.514 109.792H319.134C319.465 109.792 319.734 109.524 319.734 109.192V101.252C319.734 100.921 319.465 100.652 319.134 100.652Z" fill="white"/>
<path d="M492.704 122.553C494.753 122.553 496.414 120.892 496.414 118.843C496.414 116.794 494.753 115.133 492.704 115.133C490.655 115.133 488.994 116.794 488.994 118.843C488.994 120.892 490.655 122.553 492.704 122.553Z" fill="white"/>
<path d="M361.516 138.632L361.546 152.322C361.546 152.775 361.319 153.005 360.866 153.012L355.616 153.042C355.069 153.042 354.796 152.768 354.796 152.222L354.756 117.242C354.756 116.868 354.939 116.648 355.306 116.582C362.736 115.262 378.146 113.892 379.446 124.672C379.999 129.285 378.066 132.735 373.646 135.022C373.066 135.322 373.053 135.645 373.606 135.992C375.779 137.345 377.193 139.438 377.846 142.272C378.666 145.832 379.756 149.402 380.806 152.792C380.816 152.818 380.819 152.847 380.816 152.875C380.812 152.903 380.801 152.93 380.784 152.953C380.767 152.976 380.745 152.994 380.719 153.006C380.693 153.018 380.665 153.023 380.636 153.022L374.086 153.012C374.009 153.012 373.933 152.987 373.872 152.94C373.81 152.893 373.766 152.826 373.746 152.752C372.753 149.252 371.803 145.765 370.896 142.292C369.806 138.142 365.936 137.622 362.326 137.782C361.786 137.808 361.516 138.092 361.516 138.632ZM361.496 121.852L361.556 132.092C361.559 132.315 361.649 132.529 361.809 132.686C361.968 132.843 362.182 132.932 362.406 132.932L365.886 132.922C366.783 132.917 367.671 132.772 368.498 132.497C369.326 132.221 370.077 131.82 370.708 131.316C371.34 130.811 371.839 130.214 372.179 129.558C372.518 128.902 372.691 128.2 372.686 127.492V126.332C372.677 124.903 371.95 123.536 370.663 122.533C369.377 121.53 367.637 120.972 365.826 120.982L362.346 120.992C362.234 120.992 362.122 121.014 362.019 121.057C361.915 121.101 361.821 121.164 361.742 121.244C361.662 121.324 361.6 121.419 361.558 121.523C361.516 121.628 361.495 121.739 361.496 121.852Z" fill="white"/>
<path d="M7.76406 131.771L20.184 131.781C20.3299 131.781 20.4698 131.839 20.5729 131.942C20.6761 132.045 20.734 132.185 20.734 132.331L20.714 136.731C20.714 136.877 20.6561 137.017 20.5529 137.12C20.4498 137.223 20.3099 137.281 20.164 137.281L7.71406 137.261C7.56819 137.261 7.4283 137.319 7.32515 137.422C7.22201 137.525 7.16406 137.665 7.16406 137.811L7.19406 152.381C7.19415 152.524 7.13896 152.661 7.0401 152.763C6.94125 152.866 6.80643 152.926 6.66406 152.931L1.00406 153.091C0.930167 153.094 0.856492 153.082 0.787437 153.055C0.718383 153.029 0.655367 152.989 0.602157 152.937C0.548948 152.886 0.506642 152.824 0.47776 152.756C0.448878 152.688 0.434011 152.615 0.43406 152.541L0.414062 116.581C0.414062 116.435 0.472013 116.295 0.575158 116.192C0.678303 116.089 0.818196 116.031 0.964065 116.031L21.244 116.041C21.3171 116.041 21.3895 116.056 21.4568 116.084C21.5242 116.112 21.5853 116.154 21.6365 116.206C21.6877 116.258 21.728 116.32 21.7551 116.388C21.7821 116.456 21.7954 116.528 21.794 116.601L21.744 121.071C21.7414 121.215 21.6823 121.353 21.5795 121.454C21.4766 121.555 21.3382 121.611 21.194 121.611L7.72406 121.561C7.57819 121.561 7.43829 121.619 7.33515 121.722C7.232 121.825 7.17406 121.965 7.17406 122.111L7.21406 131.221C7.21406 131.367 7.272 131.507 7.37515 131.61C7.47829 131.713 7.61819 131.771 7.76406 131.771Z" fill="white"/>
<path d="M95.2752 124.511L93.9452 152.261C93.9252 152.741 93.6718 152.985 93.1852 152.991L88.1752 153.071C87.7285 153.078 87.5185 152.858 87.5452 152.411L89.8552 116.791C89.8885 116.291 90.1552 116.041 90.6552 116.041L98.1452 116.031C98.6052 116.031 98.9118 116.251 99.0652 116.691C101.978 125.158 104.602 133.848 106.935 142.761C107.102 143.401 107.275 143.401 107.455 142.761C109.715 134.408 112.458 125.738 115.685 116.751C115.858 116.265 116.205 116.021 116.725 116.021L124.105 116.031C124.289 116.031 124.467 116.102 124.6 116.228C124.734 116.354 124.815 116.528 124.825 116.711L126.835 152.561C126.855 152.881 126.702 153.041 126.375 153.041L120.665 152.981C120.358 152.981 120.198 152.828 120.185 152.521L119.025 124.011C119.023 123.977 119.011 123.941 118.991 123.909C118.971 123.878 118.945 123.853 118.916 123.838C118.887 123.824 118.859 123.822 118.835 123.831C118.811 123.841 118.793 123.862 118.785 123.891L109.475 151.891C109.328 152.318 109.028 152.531 108.575 152.531L104.905 152.541C104.675 152.541 104.451 152.468 104.264 152.334C104.078 152.199 103.938 152.009 103.865 151.791C100.632 142.238 97.9218 133.128 95.7352 124.461C95.4752 123.455 95.3218 123.471 95.2752 124.511Z" fill="white"/>
<path d="M504.465 125.731L504.415 122.052C504.412 121.834 504.483 121.622 504.615 121.448C504.747 121.275 504.933 121.149 505.145 121.092L510.195 119.761C510.895 119.581 511.225 119.851 511.185 120.571L510.915 125.622C510.911 125.703 510.924 125.785 510.952 125.862C510.98 125.939 511.023 126.009 511.079 126.069C511.135 126.128 511.203 126.176 511.278 126.209C511.353 126.243 511.433 126.26 511.515 126.261L516.705 126.312C517.205 126.312 517.455 126.562 517.455 127.062L517.475 130.492C517.482 131.018 517.222 131.288 516.695 131.302L511.615 131.432C511.182 131.438 510.968 131.661 510.975 132.101C511.042 136.435 511.118 140.678 511.205 144.832C511.275 148.212 514.315 147.911 516.635 148.131C516.816 148.151 516.983 148.237 517.103 148.372C517.224 148.508 517.288 148.682 517.285 148.862L517.235 152.332C517.228 152.678 517.058 152.898 516.725 152.992C515.485 153.325 514.182 153.505 512.815 153.532C505.205 153.692 504.265 148.042 504.375 141.992C504.442 138.225 504.455 134.822 504.415 131.782C504.408 131.422 504.225 131.255 503.865 131.282L501.395 131.472C500.875 131.512 500.618 131.272 500.625 130.752L500.675 127.041C500.682 126.561 500.922 126.318 501.395 126.312L503.955 126.261C504.295 126.255 504.465 126.078 504.465 125.731Z" fill="white"/>
<path d="M636.394 126.282L641.814 126.321C642.227 126.328 642.431 126.535 642.424 126.942L642.384 130.561C642.384 131.068 642.131 131.318 641.624 131.311L636.424 131.271C636.057 131.271 635.874 131.451 635.874 131.811C635.867 136.158 635.917 140.415 636.024 144.581C636.114 148.251 638.904 147.892 641.494 148.032C641.674 148.042 641.844 148.121 641.967 148.254C642.09 148.386 642.157 148.561 642.154 148.741L642.134 152.241C642.127 152.695 641.907 152.971 641.474 153.071C635.604 154.401 629.864 153.161 629.534 146.131C629.321 141.658 629.287 136.955 629.434 132.021C629.437 131.922 629.419 131.823 629.383 131.731C629.347 131.639 629.292 131.555 629.223 131.485C629.154 131.415 629.071 131.36 628.98 131.323C628.889 131.286 628.792 131.269 628.694 131.271L626.234 131.321C625.734 131.328 625.491 131.085 625.504 130.591L625.604 127.061C625.624 126.561 625.881 126.308 626.374 126.301L628.804 126.271C629.224 126.265 629.431 126.051 629.424 125.631L629.384 122.211C629.371 121.611 629.654 121.235 630.234 121.081L635.094 119.761C635.694 119.595 635.987 119.825 635.974 120.451L635.864 125.752C635.857 126.105 636.034 126.282 636.394 126.282Z" fill="white"/>
<path d="M35.9553 153.525C32.3884 152.922 29.2152 150.88 27.1337 147.848C25.0522 144.816 24.2329 141.042 24.8561 137.358C25.1647 135.533 25.8181 133.786 26.7791 132.214C27.74 130.643 28.9897 129.279 30.4568 128.2C31.9238 127.121 33.5795 126.349 35.3293 125.927C37.0791 125.505 38.8888 125.441 40.6549 125.74C44.2218 126.343 47.395 128.385 49.4766 131.417C51.5581 134.449 52.3773 138.223 51.7541 141.907C51.4456 143.732 50.7921 145.479 49.8312 147.05C48.8702 148.622 47.6205 149.986 46.1535 151.065C44.6864 152.143 43.0307 152.916 41.2809 153.338C39.5311 153.76 37.7215 153.824 35.9553 153.525ZM38.3051 148.662C40.0609 148.662 41.7447 147.708 42.9862 146.009C44.2277 144.31 44.9251 142.005 44.9251 139.602C44.9251 137.2 44.2277 134.895 42.9862 133.196C41.7447 131.497 40.0609 130.542 38.3051 130.542C36.5494 130.542 34.8656 131.497 33.6241 133.196C32.3826 134.895 31.6851 137.2 31.6851 139.602C31.6851 142.005 32.3826 144.31 33.6241 146.009C34.8656 147.708 36.5494 148.662 38.3051 148.662Z" fill="white"/>
<path d="M63.5549 130.442C65.8749 127.412 67.6249 125.322 72.0349 125.862C72.2482 125.889 72.3582 126.012 72.3649 126.232L72.4249 131.782C72.425 131.818 72.4177 131.854 72.4034 131.887C72.3891 131.92 72.3681 131.949 72.3418 131.974C72.3155 131.998 72.2845 132.017 72.2506 132.029C72.2167 132.041 72.1807 132.045 72.1449 132.042C66.3449 131.542 64.0149 134.852 64.0949 140.102C64.1482 144.242 64.1783 148.292 64.1849 152.252C64.1849 152.439 64.1115 152.618 63.9805 152.751C63.8495 152.884 63.6715 152.96 63.4849 152.962L57.9949 153.032C57.6149 153.039 57.4249 152.852 57.4249 152.472L57.2949 127.322C57.2949 126.616 57.6483 126.266 58.3549 126.272L61.9449 126.292C62.7782 126.299 63.1682 126.719 63.1149 127.552L62.9449 130.212C62.8982 130.966 63.1016 131.042 63.5549 130.442Z" fill="white"/>
<path d="M147.395 133.573C147.302 133.399 147.205 133.229 147.105 133.063C146.666 132.356 146.064 131.765 145.35 131.335C144.635 130.906 143.828 130.651 142.995 130.593C140.528 130.419 138.048 130.943 135.555 132.163C135.476 132.202 135.388 132.223 135.3 132.225C135.211 132.226 135.122 132.207 135.041 132.17C134.96 132.133 134.888 132.078 134.829 132.009C134.771 131.94 134.729 131.859 134.705 131.773L133.865 128.523C133.758 128.109 133.902 127.816 134.295 127.643C140.005 125.053 149.925 124.163 153.015 130.833C154.062 133.106 154.535 136.119 154.435 139.873C154.302 144.473 154.372 148.616 154.645 152.303C154.685 152.796 154.458 153.043 153.965 153.043L149.345 153.013C148.805 153.013 148.535 152.743 148.535 152.203V151.313C148.535 150.299 148.152 150.126 147.385 150.793C144.605 153.199 141.462 154.039 137.955 153.313C132.865 152.253 130.615 146.973 132.505 142.263C134.535 137.183 141.095 135.583 146.175 135.593C147.688 135.593 148.095 134.919 147.395 133.573ZM138.545 144.903C138.275 150.783 147.265 149.343 147.695 144.063C147.795 142.856 147.778 141.626 147.645 140.373C147.618 140.086 147.465 139.943 147.185 139.943C143.915 139.933 138.745 140.693 138.545 144.903Z" fill="white"/>
<path d="M167.165 129.282C167.166 129.372 167.194 129.46 167.246 129.533C167.297 129.607 167.369 129.664 167.453 129.696C167.537 129.729 167.629 129.735 167.717 129.715C167.804 129.694 167.884 129.648 167.945 129.582C170.732 126.509 174.015 125.282 177.795 125.902C184.745 127.042 185.785 133.872 185.665 139.852C185.578 144.152 185.582 148.296 185.675 152.282C185.678 152.374 185.662 152.465 185.629 152.55C185.596 152.635 185.547 152.713 185.484 152.78C185.42 152.846 185.345 152.898 185.261 152.935C185.177 152.971 185.086 152.991 184.995 152.992L179.615 153.062C179.507 153.064 179.4 153.043 179.3 153.003C179.2 152.962 179.109 152.901 179.032 152.825C178.956 152.749 178.895 152.658 178.855 152.558C178.814 152.457 178.794 152.35 178.795 152.242C178.822 146.816 178.795 141.616 178.715 136.642C178.605 129.192 168.465 129.832 168.285 137.002C168.132 142.576 168.135 147.586 168.295 152.032C168.315 152.632 168.025 152.942 167.425 152.962L162.385 153.122C162.266 153.126 162.147 153.106 162.035 153.064C161.924 153.022 161.822 152.957 161.736 152.875C161.65 152.793 161.582 152.695 161.535 152.586C161.489 152.477 161.465 152.36 161.465 152.242L161.385 126.922C161.385 126.502 161.598 126.292 162.025 126.292L166.345 126.332C166.457 126.333 166.567 126.357 166.67 126.401C166.772 126.446 166.865 126.51 166.943 126.591C167.021 126.672 167.083 126.767 167.124 126.872C167.166 126.977 167.186 127.089 167.185 127.202L167.165 129.282Z" fill="white"/>
<path d="M199.514 150.834V163.224C199.514 163.59 199.331 163.777 198.964 163.784L193.474 163.824C192.967 163.83 192.714 163.58 192.714 163.074L192.654 127.034C192.654 126.527 192.904 126.277 193.404 126.284L197.784 126.334C198.311 126.34 198.584 126.61 198.604 127.144L198.694 129.474C198.721 130.147 198.957 130.23 199.404 129.724C203.714 124.754 211.564 124.124 215.914 129.454C223.194 138.364 218.314 155.404 204.974 153.364C203.154 153.09 201.554 152.164 200.174 150.584C199.734 150.09 199.514 150.174 199.514 150.834ZM212.198 137.274C212.211 136.507 212.073 135.745 211.792 135.032C211.511 134.318 211.092 133.667 210.56 133.115C210.027 132.563 209.391 132.122 208.687 131.816C207.984 131.51 207.227 131.346 206.461 131.333L205.561 131.317C204.794 131.304 204.032 131.441 203.318 131.722C202.605 132.004 201.954 132.422 201.402 132.955C200.85 133.488 200.409 134.124 200.103 134.827C199.797 135.531 199.633 136.287 199.62 137.054L199.53 142.173C199.517 142.94 199.655 143.702 199.936 144.416C200.217 145.129 200.636 145.781 201.168 146.332C201.701 146.884 202.337 147.325 203.041 147.631C203.744 147.937 204.501 148.101 205.268 148.115L206.167 148.13C206.934 148.144 207.696 148.006 208.41 147.725C209.123 147.444 209.774 147.025 210.326 146.492C210.878 145.959 211.319 145.323 211.625 144.62C211.931 143.917 212.095 143.16 212.108 142.393L212.198 137.274Z" fill="white"/>
<path d="M233.967 153.473C232.207 153.137 230.533 152.447 229.04 151.442C227.547 150.437 226.264 149.137 225.265 147.615C224.266 146.093 223.57 144.38 223.217 142.574C222.864 140.767 222.86 138.903 223.207 137.087C223.906 133.418 225.989 130.17 228.996 128.055C232.004 125.941 235.69 125.134 239.243 125.812C241.003 126.148 242.677 126.838 244.17 127.843C245.663 128.848 246.945 130.148 247.945 131.67C248.944 133.192 249.64 134.905 249.993 136.711C250.346 138.518 250.35 140.382 250.003 142.198C249.304 145.866 247.221 149.115 244.213 151.229C241.206 153.344 237.52 154.151 233.967 153.473ZM236.662 148.632C238.421 148.623 240.102 147.661 241.336 145.957C242.571 144.253 243.257 141.948 243.245 139.548C243.239 138.359 243.061 137.183 242.722 136.087C242.383 134.991 241.89 133.996 241.269 133.159C240.649 132.322 239.915 131.659 239.108 131.208C238.302 130.758 237.438 130.528 236.568 130.533C234.809 130.542 233.128 131.504 231.893 133.208C230.659 134.911 229.972 137.217 229.985 139.617C229.991 140.806 230.169 141.982 230.508 143.078C230.847 144.174 231.34 145.169 231.96 146.006C232.58 146.843 233.315 147.506 234.122 147.957C234.928 148.407 235.792 148.637 236.662 148.632Z" fill="white"/>
<path d="M300.346 142.082C300.936 150.092 310.776 148.522 315.826 147.472C315.986 147.439 316.079 147.502 316.106 147.662L316.735 151.512C316.754 151.636 316.73 151.762 316.666 151.868C316.602 151.975 316.503 152.054 316.386 152.092C306.016 155.522 293.596 153.172 293.846 139.562C293.956 133.722 296.986 128.152 302.716 126.392C309.116 124.422 315.626 126.902 317.546 133.692C318.206 136.046 318.433 138.469 318.226 140.962C318.213 141.118 318.143 141.263 318.028 141.369C317.913 141.475 317.762 141.533 317.606 141.532L300.856 141.542C300.786 141.542 300.716 141.557 300.651 141.584C300.586 141.612 300.528 141.652 300.48 141.703C300.433 141.754 300.396 141.814 300.373 141.879C300.35 141.944 300.34 142.014 300.346 142.082ZM300.955 136.802L311.636 136.762C311.729 136.762 311.818 136.726 311.884 136.66C311.949 136.594 311.985 136.505 311.985 136.412V136.172C311.98 134.674 311.385 133.239 310.329 132.183C309.273 131.127 307.844 130.537 306.356 130.542H306.196C305.459 130.545 304.729 130.694 304.05 130.98C303.37 131.266 302.754 131.685 302.235 132.211C301.716 132.738 301.304 133.362 301.024 134.049C300.745 134.735 300.603 135.47 300.606 136.212V136.452C300.606 136.545 300.643 136.634 300.709 136.7C300.774 136.766 300.862 136.802 300.955 136.802Z" fill="white"/>
<path d="M330.375 130.083C332.035 126.969 334.642 125.529 338.195 125.763C338.508 125.789 338.665 125.959 338.665 126.273L338.685 131.543C338.692 131.949 338.488 132.143 338.075 132.123C333.108 131.903 330.602 134.426 330.555 139.693C330.515 143.893 330.498 148.136 330.505 152.423C330.505 152.575 330.445 152.721 330.339 152.829C330.232 152.938 330.087 153 329.935 153.003L324.205 153.073C323.865 153.079 323.692 152.909 323.685 152.563L323.645 127.383C323.645 126.609 324.032 126.229 324.805 126.243L328.275 126.303C329.095 126.323 329.482 126.743 329.435 127.563C329.388 128.409 329.472 129.223 329.685 130.003C329.845 130.609 330.075 130.636 330.375 130.083Z" fill="white"/>
<path d="M391.455 141.523C391.329 141.524 391.205 141.552 391.092 141.606C390.979 141.66 390.879 141.738 390.801 141.835C390.722 141.932 390.666 142.045 390.638 142.166C390.609 142.286 390.608 142.412 390.635 142.533C392.235 149.953 400.505 148.683 405.895 147.493C406.175 147.427 406.345 147.537 406.405 147.823L407.135 151.303C407.215 151.717 407.055 151.983 406.655 152.103C398.335 154.683 387.585 154.373 384.885 144.633C382.415 135.753 386.975 125.963 397.135 125.763C405.885 125.583 409.535 133.673 408.515 141.193C408.505 141.287 408.46 141.374 408.387 141.437C408.315 141.5 408.222 141.534 408.125 141.533L391.455 141.523ZM391.335 136.983L401.975 136.723C402.033 136.722 402.09 136.709 402.143 136.686C402.195 136.663 402.243 136.629 402.283 136.587C402.323 136.546 402.354 136.496 402.375 136.442C402.396 136.389 402.406 136.331 402.405 136.273L402.395 136.133C402.357 134.596 401.727 133.135 400.643 132.074C399.559 131.012 398.11 130.437 396.615 130.473H396.375C394.88 130.512 393.462 131.159 392.432 132.273C391.403 133.387 390.846 134.876 390.885 136.413V136.553C390.886 136.611 390.899 136.668 390.922 136.721C390.946 136.774 390.979 136.822 391.021 136.861C391.063 136.901 391.112 136.933 391.166 136.954C391.22 136.974 391.277 136.985 391.335 136.983Z" fill="white"/>
<path d="M420.166 143.691C422.246 148.511 427.756 148.921 432.146 147.361C432.559 147.215 432.813 147.358 432.906 147.791L433.656 151.551C433.756 152.031 433.573 152.338 433.106 152.471C425.996 154.561 417.596 153.841 414.006 146.741C412.833 144.435 412.326 142.035 412.486 139.541C413.216 127.911 422.516 124.082 432.856 126.412C433.609 126.578 433.886 127.035 433.686 127.781L432.746 131.251C432.593 131.825 432.243 132.005 431.696 131.791C423.346 128.511 416.746 135.771 420.166 143.691Z" fill="white"/>
<path d="M445.335 130.142C446.815 127.068 449.329 125.578 452.875 125.672C453.103 125.679 453.319 125.774 453.478 125.937C453.637 126.099 453.725 126.316 453.725 126.542L453.735 131.252C453.742 131.852 453.445 132.138 452.845 132.112C447.812 131.918 445.328 134.542 445.395 139.982C445.448 144.455 445.455 148.618 445.415 152.472C445.413 152.611 445.356 152.745 445.257 152.844C445.158 152.942 445.025 152.999 444.885 153.002L439.475 153.092C438.968 153.098 438.712 152.845 438.705 152.332L438.555 126.952C438.555 126.492 438.782 126.265 439.235 126.272L443.615 126.302C444.235 126.302 444.509 126.612 444.435 127.232C444.309 128.252 444.402 129.212 444.715 130.112C444.895 130.618 445.102 130.628 445.335 130.142Z" fill="white"/>
<path d="M544.666 130.082C550.636 122.732 560.796 124.802 561.576 134.972C561.936 139.672 561.996 145.505 561.756 152.472C561.743 152.838 561.553 153.022 561.186 153.022L555.906 153.012C555.826 153.012 555.747 152.996 555.674 152.964C555.6 152.933 555.534 152.887 555.478 152.83C555.422 152.772 555.378 152.703 555.349 152.628C555.319 152.553 555.305 152.473 555.306 152.392C555.393 146.058 555.306 140.678 555.046 136.252C554.636 129.002 545.506 130.092 545.476 137.142C545.449 142.182 545.433 147.232 545.426 152.292C545.426 152.47 545.356 152.642 545.23 152.769C545.105 152.896 544.934 152.969 544.756 152.972L539.636 153.022C539.538 153.023 539.441 153.005 539.35 152.968C539.259 152.932 539.176 152.877 539.106 152.808C539.036 152.74 538.981 152.658 538.943 152.567C538.905 152.477 538.886 152.38 538.886 152.282C538.886 147.328 538.866 142.245 538.826 137.032C538.766 128.932 529.406 130.012 529.236 136.562C529.116 141.048 529.093 146.278 529.166 152.252C529.167 152.351 529.149 152.45 529.111 152.542C529.073 152.634 529.018 152.718 528.947 152.788C528.876 152.859 528.792 152.915 528.699 152.954C528.606 152.992 528.506 153.012 528.406 153.012L523.236 152.992C522.796 152.992 522.576 152.775 522.576 152.342L522.506 127.232C522.506 126.592 522.826 126.278 523.466 126.292L527.406 126.362C528.073 126.375 528.329 126.705 528.176 127.352C528.029 127.972 528.006 128.592 528.106 129.212C528.193 129.785 528.452 129.875 528.886 129.482C530.166 128.322 531.186 127.162 532.886 126.542C537.739 124.775 541.386 125.935 543.826 130.022C544.079 130.442 544.359 130.462 544.666 130.082Z" fill="white"/>
<path d="M573.775 142.322C574.925 149.362 582.945 149.062 588.435 147.502C588.548 147.469 588.666 147.46 588.783 147.474C588.9 147.488 589.013 147.525 589.115 147.584C589.218 147.642 589.308 147.721 589.38 147.815C589.452 147.91 589.505 148.017 589.535 148.132L590.205 150.782C590.392 151.509 590.128 151.982 589.415 152.202C581.185 154.742 569.615 154.222 567.655 143.482C563.765 122.122 593.735 118.522 591.655 141.022C591.628 141.362 591.445 141.532 591.105 141.532L574.465 141.522C574.364 141.523 574.264 141.545 574.172 141.587C574.081 141.629 573.999 141.69 573.934 141.766C573.868 141.842 573.82 141.931 573.792 142.027C573.765 142.123 573.759 142.224 573.775 142.322ZM574.335 136.842L585.135 136.722C585.215 136.722 585.291 136.691 585.347 136.634C585.403 136.578 585.435 136.502 585.435 136.422V136.122C585.427 135.379 585.274 134.645 584.983 133.961C584.693 133.277 584.272 132.658 583.744 132.138C583.215 131.618 582.59 131.207 581.904 130.93C581.218 130.653 580.484 130.514 579.745 130.522H579.605C578.866 130.53 578.135 130.684 577.455 130.976C576.775 131.268 576.159 131.691 575.641 132.222C575.124 132.753 574.716 133.382 574.44 134.072C574.165 134.761 574.027 135.499 574.035 136.242V136.542C574.035 136.622 574.067 136.698 574.123 136.754C574.179 136.811 574.255 136.842 574.335 136.842Z" fill="white"/>
<path d="M602.916 129.072C602.923 129.926 603.216 130.039 603.796 129.412C609.796 122.982 619.596 125.072 621.096 134.282C621.569 137.236 621.636 143.336 621.296 152.582C621.291 152.682 621.249 152.776 621.178 152.845C621.107 152.914 621.013 152.952 620.916 152.952L615.156 153.072C615.081 153.074 615.006 153.06 614.936 153.032C614.866 153.004 614.803 152.962 614.75 152.908C614.697 152.855 614.655 152.792 614.627 152.722C614.598 152.652 614.585 152.578 614.586 152.502C614.699 146.602 614.659 141.296 614.466 136.582C614.166 129.022 604.176 130.022 604.016 136.882C603.903 141.676 603.889 146.792 603.976 152.232C603.983 152.752 603.723 153.012 603.196 153.012L597.956 153.022C597.768 153.022 597.587 152.948 597.454 152.814C597.321 152.681 597.246 152.501 597.246 152.312L597.086 126.942C597.086 126.502 597.306 126.282 597.746 126.282L602.156 126.272C602.351 126.272 602.537 126.35 602.676 126.488C602.814 126.627 602.893 126.815 602.896 127.012L602.916 129.072Z" fill="white"/>
<path d="M272.454 135.444C272.294 134.717 272.108 134.71 271.894 135.424L266.904 152.144C266.829 152.393 266.675 152.611 266.467 152.766C266.258 152.921 266.004 153.004 265.744 153.004L260.714 153.034C260.578 153.033 260.445 152.99 260.335 152.909C260.226 152.828 260.145 152.714 260.104 152.584L252.414 126.564C252.407 126.535 252.406 126.505 252.411 126.477C252.416 126.448 252.428 126.42 252.445 126.396C252.463 126.373 252.485 126.353 252.511 126.338C252.536 126.324 252.565 126.316 252.594 126.314L259.124 126.264C259.264 126.264 259.347 126.334 259.374 126.474L263.674 145.874C263.781 146.347 263.897 146.35 264.024 145.884L269.134 127.034C269.274 126.52 269.611 126.264 270.144 126.264L274.374 126.284C274.741 126.284 274.981 126.46 275.094 126.814C277.027 132.894 278.674 139.057 280.034 145.304C280.307 146.537 280.567 146.534 280.814 145.294C282.041 139.034 283.514 132.784 285.234 126.544C285.274 126.41 285.364 126.344 285.504 126.344L291.654 126.284C291.687 126.284 291.719 126.292 291.748 126.306C291.777 126.321 291.802 126.343 291.822 126.369C291.841 126.395 291.854 126.425 291.86 126.457C291.865 126.489 291.863 126.522 291.854 126.554L283.734 152.244C283.574 152.75 283.231 153.004 282.704 153.004L278.094 153.054C277.601 153.054 277.274 152.82 277.114 152.354C275.294 146.86 273.741 141.224 272.454 135.444Z" fill="white"/>
<path d="M475.464 149.701C469.634 156.771 458.664 153.991 458.254 144.211C458.021 138.591 457.941 132.845 458.014 126.971C458.021 126.518 458.251 126.291 458.704 126.291L464.164 126.271C464.657 126.271 464.897 126.521 464.884 127.021C464.644 133.528 464.707 138.971 465.074 143.351C465.414 147.441 469.324 149.251 472.744 147.151C474.431 146.118 475.287 144.251 475.314 141.551C475.367 136.438 475.367 131.495 475.314 126.721C475.314 126.441 475.451 126.301 475.724 126.301L481.594 126.281C481.874 126.281 482.014 126.421 482.014 126.701L482.184 152.231C482.184 152.718 481.941 152.965 481.454 152.971L477.394 153.031C476.594 153.045 476.244 152.655 476.344 151.861C476.437 151.155 476.387 150.481 476.194 149.841C476.041 149.341 475.797 149.295 475.464 149.701Z" fill="white"/>
<path d="M495.626 126.303H489.806C489.546 126.303 489.336 126.514 489.336 126.773V152.533C489.336 152.793 489.546 153.003 489.806 153.003H495.626C495.886 153.003 496.096 152.793 496.096 152.533V126.773C496.096 126.514 495.886 126.303 495.626 126.303Z" fill="white"/>
<path d="M863.431 32.7757C872.22 32.7757 879.345 25.6511 879.345 16.8624C879.345 8.07381 872.22 0.949219 863.431 0.949219C854.643 0.949219 847.518 8.07381 847.518 16.8624C847.518 25.6511 854.643 32.7757 863.431 32.7757Z" fill="#D9BD2E"/>
<path d="M760.801 40.0379C769.606 40.0379 776.744 32.8996 776.744 24.0941C776.744 15.2887 769.606 8.15039 760.801 8.15039C751.995 8.15039 744.857 15.2887 744.857 24.0941C744.857 32.8996 751.995 40.0379 760.801 40.0379Z" fill="white"/>
<path d="M867.526 54.1509C861.876 52.5359 856.131 53.0668 850.289 55.7434C845.39 57.9888 841.429 61.3631 837.255 64.9631C828.456 72.5475 817.724 77.6485 806.204 77.7095C795.721 77.7644 785.745 73.1149 777.172 66.519C777.072 66.4425 776.988 66.3469 776.925 66.2378C776.863 66.1287 776.823 66.0083 776.807 65.8835C776.791 65.7586 776.799 65.6319 776.833 65.5105C776.866 65.3892 776.923 65.2757 777.001 65.1766C780.192 61.1129 783.396 57.0309 787.594 54.0349C788.333 53.5102 788.961 53.5712 789.742 54.0776C794.831 57.3848 799.761 60.161 805.802 60.2892C812.709 60.4295 819.5 56.3048 824.906 52.058C829.44 48.5007 833.991 44.3942 838.805 41.5752C845.525 37.6336 852.792 35.5366 860.606 35.2844C880.65 34.6437 895.831 48.94 902.769 66.58C902.82 66.7108 902.826 66.8549 902.784 66.9875C902.742 67.12 902.654 67.2327 902.537 67.3061C897.969 70.2105 893.396 72.578 888.815 74.4085C888.581 74.503 888.318 74.5045 888.081 74.4128C887.845 74.3211 887.651 74.143 887.539 73.9143C883.335 65.3109 877.185 56.9149 867.526 54.1509Z" fill="#D9BD2E"/>
<path d="M739.012 78.6615C738.622 79.5239 738.217 80.372 737.798 81.2059C737.687 81.429 737.493 81.6001 737.257 81.6831C737.02 81.7662 736.759 81.7548 736.529 81.6513L722.526 75.3666C721.854 75.0656 721.665 74.5795 721.958 73.9083C727.523 61.1191 736.041 49.3184 749.599 44.4676C760.972 40.3977 775.141 42.5638 784.684 49.8676C785.261 50.3069 785.288 50.7767 784.763 51.2771L773.615 61.894C773.452 62.0487 773.247 62.1533 773.027 62.1955C772.806 62.2376 772.578 62.2156 772.37 62.132C757.031 55.9571 745.108 65.2133 739.012 78.6615Z" fill="white"/>
<path d="M799.022 124.34C798.855 125.162 799.012 125.229 799.492 124.541C806.057 115.193 814.666 106.328 825.326 102.191C832.215 99.5243 841.978 99.5792 848.622 103.259C860.673 109.94 858.288 127.342 856.176 138.423C856.167 138.468 856.168 138.515 856.18 138.559C856.192 138.604 856.214 138.646 856.245 138.681C856.275 138.716 856.313 138.744 856.357 138.763C856.4 138.782 856.447 138.79 856.494 138.789C858.808 138.716 861.251 138.687 863.822 138.703C868.111 138.74 871.302 137.501 871.571 132.699C871.839 127.897 871.601 123.077 872.822 118.086C874.89 109.617 880.357 102.892 888.973 101.337C896.106 100.055 903.196 101.276 908.444 106.413C916.907 114.718 917.523 129.868 913.764 140.04C909.829 150.699 900.536 154.763 889.626 153.177C884.836 152.481 880.461 149.729 877.813 145.678C877.783 145.631 877.741 145.593 877.692 145.567C877.643 145.541 877.588 145.528 877.532 145.529C877.476 145.531 877.421 145.546 877.372 145.574C877.323 145.602 877.281 145.642 877.252 145.69C874.14 150.895 869.411 152.365 863.7 152.365C837.104 152.361 810.511 152.387 783.92 152.444C779.264 152.457 774.755 152.292 770.368 150.602C764.161 148.214 760.162 144.091 758.372 138.234C757.75 136.183 757.443 133.149 757.451 129.13C757.504 111.353 757.51 93.3413 757.469 75.0931C757.469 74.7758 757.628 74.6152 757.945 74.6111L770.569 74.5684C770.609 74.5684 770.649 74.5762 770.685 74.5913C770.722 74.6064 770.755 74.6285 770.783 74.6564C770.811 74.6842 770.833 74.7172 770.848 74.7534C770.862 74.7897 770.869 74.8284 770.868 74.8674C770.836 93.8762 770.838 112.824 770.875 131.711C770.887 136.574 774.682 138.441 778.953 138.624C781.418 138.73 783.94 138.76 786.519 138.716C786.59 138.714 786.656 138.684 786.705 138.633C786.754 138.582 786.782 138.513 786.782 138.441L786.757 105.437C786.757 105.384 786.768 105.332 786.788 105.283C786.808 105.234 786.838 105.19 786.875 105.152C786.913 105.115 786.957 105.085 787.006 105.065C787.055 105.045 787.107 105.034 787.16 105.034L799.919 105.028C799.988 105.028 800.055 105.056 800.104 105.107C800.153 105.157 800.181 105.225 800.181 105.297C800.153 109.267 800.134 113.257 800.126 117.268C800.12 119.629 799.492 122.003 799.022 124.34ZM892.591 112.924C884.458 113.979 883.988 124.938 885.013 131.223C885.684 135.366 887.783 139.204 892.231 139.924C903.098 141.681 903.727 128.776 902.586 121.789C901.713 116.432 898.486 112.155 892.591 112.924ZM835.553 113.833C827.822 113.058 819.401 118.714 813.538 124.187C809.022 128.398 804.987 133.112 801.432 138.331C801.406 138.37 801.391 138.415 801.389 138.461C801.386 138.508 801.396 138.554 801.418 138.595C801.439 138.636 801.471 138.67 801.51 138.693C801.549 138.716 801.594 138.728 801.639 138.728L841.447 138.722C841.536 138.722 841.622 138.692 841.692 138.638C841.762 138.584 841.811 138.508 841.831 138.423C842.726 134.749 843.403 131.099 843.863 127.47C844.705 120.838 843.686 114.65 835.553 113.833Z" fill="white"/>
<path d="M732.074 138.391C732.11 134.376 732.104 130.329 732.056 126.253C732.031 124.24 731.773 122.302 731.281 120.439C729.688 114.392 725.417 113.245 719.718 113.263C716.342 113.271 712.998 113.279 709.687 113.287C709.624 113.287 709.563 113.262 709.518 113.216C709.474 113.17 709.449 113.108 709.449 113.043L709.455 101.572C709.455 101.316 709.583 101.184 709.839 101.175C715.839 101.033 720.287 101.06 723.184 101.255C739.14 102.329 745.156 113.623 745.192 128.316C745.217 136.236 745.233 144.129 745.241 151.997C745.241 152.043 745.232 152.089 745.214 152.132C745.197 152.175 745.171 152.214 745.138 152.247C745.105 152.28 745.066 152.306 745.023 152.324C744.98 152.341 744.934 152.35 744.887 152.35L709.632 152.387C709.582 152.387 709.533 152.367 709.498 152.332C709.463 152.296 709.443 152.249 709.443 152.199L709.473 139.031C709.473 138.824 709.577 138.719 709.784 138.719L731.726 138.731C731.817 138.731 731.905 138.696 731.97 138.632C732.035 138.568 732.072 138.482 732.074 138.391Z" fill="white"/>
<path d="M697.222 142.907C697.246 158.503 691.773 174.41 674.939 177.37C672.555 177.793 669.535 177.98 665.878 177.931C665.577 177.931 665.426 177.781 665.426 177.48V166.539C665.426 166.494 665.443 166.45 665.474 166.418C665.505 166.386 665.547 166.368 665.591 166.368C667.989 166.319 670.558 166.161 672.858 165.423C684.25 161.786 683.841 146.818 683.829 137.428C683.817 128.186 683.815 118.618 683.823 108.726C683.823 108.674 683.843 108.624 683.88 108.587C683.916 108.551 683.966 108.53 684.018 108.53L696.838 108.518C697.11 108.518 697.246 108.654 697.246 108.927C697.214 120.703 697.206 132.03 697.222 142.907Z" fill="white"/>
<path d="M854.53 173.86C854.55 173.873 854.573 173.881 854.596 173.883C854.62 173.884 854.644 173.879 854.665 173.867C854.686 173.856 854.703 173.839 854.715 173.818C854.727 173.797 854.732 173.774 854.731 173.75L854.707 161.144C854.707 161.021 854.755 160.903 854.841 160.816C854.927 160.729 855.043 160.68 855.165 160.68L863.982 160.711C864.079 160.711 864.172 160.749 864.24 160.818C864.309 160.887 864.348 160.98 864.348 161.077C864.303 171.804 864.305 182.077 864.354 191.896C864.362 194.048 864.431 196.214 864.561 198.395C864.573 198.598 864.478 198.7 864.274 198.7L856.391 198.718C856.311 198.718 856.232 198.701 856.159 198.667C856.086 198.634 856.021 198.586 855.968 198.525C855.915 198.465 855.875 198.394 855.852 198.316C855.828 198.239 855.82 198.158 855.83 198.077C855.915 197.357 855.876 196.615 855.714 195.85C855.703 195.798 855.677 195.751 855.64 195.713C855.602 195.675 855.555 195.648 855.503 195.636C855.452 195.624 855.397 195.626 855.347 195.644C855.297 195.661 855.253 195.693 855.22 195.734C851.565 200.378 844.67 200.305 840.472 196.351C836.286 192.397 835.639 185.063 837.439 179.833C839.941 172.554 848.007 169.515 854.53 173.86ZM854.726 183.223C854.733 182.715 854.64 182.211 854.452 181.739C854.264 181.267 853.985 180.836 853.631 180.472C853.277 180.108 852.854 179.817 852.388 179.616C851.921 179.415 851.42 179.308 850.912 179.301L850.338 179.293C849.83 179.286 849.326 179.379 848.854 179.567C848.382 179.755 847.951 180.034 847.587 180.388C847.223 180.742 846.932 181.164 846.731 181.631C846.53 182.098 846.423 182.599 846.416 183.107L846.353 187.61C846.346 188.118 846.439 188.622 846.627 189.094C846.815 189.566 847.094 189.997 847.448 190.361C847.802 190.725 848.225 191.016 848.691 191.217C849.158 191.418 849.659 191.525 850.167 191.532L850.741 191.54C851.249 191.547 851.753 191.454 852.225 191.266C852.697 191.078 853.128 190.799 853.492 190.445C853.856 190.091 854.147 189.669 854.348 189.202C854.549 188.735 854.656 188.234 854.663 187.726L854.726 183.223Z" fill="#D9BD2E"/>
<path d="M728.662 184.477C728.829 185.181 728.992 185.181 729.15 184.477C730.72 177.554 732.553 170.514 734.648 163.359C734.708 163.157 734.832 162.979 735.002 162.853C735.171 162.726 735.376 162.658 735.588 162.657L746.961 162.682C747.112 162.682 747.258 162.74 747.367 162.845C747.476 162.949 747.541 163.092 747.547 163.243L749.298 198.359C749.301 198.398 749.295 198.437 749.281 198.475C749.268 198.512 749.247 198.546 749.219 198.575C749.192 198.604 749.159 198.628 749.122 198.644C749.085 198.66 749.046 198.669 749.005 198.67L740.42 198.737C740.152 198.741 740.013 198.609 740.005 198.34C739.655 189.733 739.432 181.066 739.334 172.341C739.334 172.247 739.297 172.178 739.224 172.133C739.204 172.125 739.181 172.121 739.157 172.121C739.092 172.129 739.049 172.168 739.029 172.237C736.8 180.56 734.442 188.937 731.957 197.37C731.835 197.785 731.554 197.994 731.115 197.999L724.757 198.005C724.48 198.005 724.31 197.87 724.245 197.602C722.093 189.214 720.219 180.95 718.625 172.811C718.615 172.759 718.588 172.713 718.548 172.678C718.509 172.643 718.458 172.621 718.405 172.615C718.234 172.599 718.147 172.644 718.143 172.75C717.899 180.893 717.571 189.464 717.16 198.462C717.156 198.592 717.089 198.657 716.959 198.657L709.015 198.743C708.547 198.747 708.327 198.517 708.356 198.053L710.51 162.847C710.513 162.79 710.537 162.738 710.578 162.699C710.619 162.661 710.673 162.639 710.729 162.639L722.92 162.676C723.348 162.68 723.61 162.889 723.708 163.304L728.662 184.477Z" fill="#D9BD2E"/>
<path d="M769.708 196.876C769.701 196.835 769.683 196.796 769.656 196.763C769.629 196.731 769.595 196.705 769.556 196.69C769.518 196.675 769.476 196.67 769.435 196.676C769.394 196.682 769.356 196.698 769.324 196.724C766.358 199.01 763.224 199.787 759.921 199.055C754.161 197.786 751.836 191.55 754.533 186.516C756.907 182.086 763.356 180.841 767.969 180.841C768.636 180.841 768.856 180.53 768.628 179.908C768.563 179.737 768.463 179.59 768.329 179.468C767.78 178.984 767.099 178.683 766.285 178.565C763.446 178.15 760.566 178.588 757.645 179.877C757.181 180.076 756.88 179.936 756.742 179.456L755.333 174.526C755.302 174.416 755.312 174.3 755.36 174.198C755.408 174.096 755.492 174.015 755.595 173.971C759.476 172.291 763.48 171.595 767.609 171.884C774.821 172.396 778.409 176.558 778.305 183.617C778.244 187.811 778.273 191.861 778.391 195.766C778.415 196.612 778.529 197.456 778.733 198.298C778.745 198.346 778.745 198.397 778.735 198.446C778.725 198.494 778.704 198.54 778.673 198.579C778.643 198.619 778.603 198.651 778.559 198.673C778.514 198.695 778.465 198.707 778.415 198.707L770.483 198.725C770.357 198.726 770.235 198.681 770.138 198.6C770.041 198.518 769.975 198.405 769.952 198.28L769.708 196.876ZM764.784 187.376C762.496 188.334 761.904 192.441 765.132 192.538C768.695 192.642 769.452 190.036 768.897 187.108C768.88 187.013 768.831 186.927 768.758 186.864C768.684 186.8 768.591 186.764 768.494 186.76C767.111 186.715 765.874 186.921 764.784 187.376Z" fill="#D9BD2E"/>
<path d="M793.512 189.736C788.929 188.186 783.468 186.325 783.548 180.583C783.597 176.867 785.94 174.207 789.326 172.816C793.182 171.236 798.088 171.718 801.987 172.974C802.504 173.141 802.701 173.489 802.579 174.018L801.377 179.271C801.361 179.339 801.331 179.403 801.288 179.458C801.245 179.513 801.19 179.558 801.128 179.589C801.065 179.621 800.997 179.638 800.927 179.64C800.857 179.642 800.788 179.629 800.724 179.601C798.631 178.686 795.312 177.801 793.182 178.985C793.051 179.057 792.938 179.16 792.854 179.284C792.771 179.409 792.717 179.551 792.7 179.7C792.682 179.849 792.7 180.001 792.752 180.141C792.804 180.282 792.889 180.409 792.999 180.51C794.275 181.682 796.874 182.359 798.497 183.03C802.089 184.519 803.862 187.082 803.818 190.718C803.75 196.185 799.064 198.596 794.287 199.071C790.63 199.433 787.034 199.019 783.499 197.827C783.341 197.773 783.208 197.662 783.125 197.516C783.042 197.37 783.014 197.199 783.047 197.033L784.256 191.249C784.273 191.163 784.311 191.082 784.365 191.013C784.419 190.944 784.488 190.888 784.567 190.85C784.646 190.811 784.733 190.792 784.82 190.792C784.908 190.793 784.995 190.813 785.073 190.852C788.01 192.321 790.882 192.823 793.689 192.36C793.866 192.331 794.034 192.262 794.182 192.159C794.329 192.056 794.451 191.921 794.54 191.764C794.628 191.608 794.68 191.433 794.692 191.253C794.705 191.073 794.677 190.892 794.61 190.724C794.423 190.248 794.057 189.919 793.512 189.736Z" fill="#D9BD2E"/>
<path d="M823.263 197.199C823.161 196.743 822.923 196.658 822.549 196.943C817.985 200.415 811.578 200.256 808.137 195.46C807.502 194.569 807.111 193.446 806.965 192.092C806.025 183.403 814.671 180.853 821.505 180.865C821.616 180.865 821.725 180.835 821.82 180.778C821.915 180.721 821.993 180.639 822.045 180.541C822.097 180.443 822.121 180.333 822.116 180.222C822.11 180.112 822.074 180.005 822.012 179.913C821.54 179.213 820.879 178.782 820.029 178.619C816.998 178.046 814.004 178.489 811.047 179.949C810.968 179.989 810.882 180.01 810.794 180.012C810.706 180.014 810.619 179.997 810.539 179.961C810.458 179.926 810.387 179.873 810.329 179.806C810.271 179.74 810.229 179.662 810.205 179.577L808.857 174.909C808.788 174.676 808.81 174.426 808.917 174.208C809.024 173.99 809.21 173.82 809.436 173.732C815.947 171.206 827.467 169.833 830.878 178.046C831.537 179.632 831.829 182.118 831.756 185.502C831.665 189.883 831.701 194.173 832.122 198.499C832.125 198.528 832.121 198.558 832.112 198.586C832.103 198.614 832.088 198.64 832.068 198.662C832.049 198.684 832.025 198.701 831.999 198.713C831.972 198.725 831.944 198.731 831.915 198.73L824.013 198.682C823.732 198.682 823.562 198.545 823.501 198.273L823.263 197.199ZM820.395 192.324C822.524 191.5 822.768 189.145 822.427 187.143C822.386 186.916 822.254 186.794 822.03 186.777C819.126 186.558 815.928 187.528 816.368 191.158C816.395 191.374 816.501 191.574 816.667 191.72C817.732 192.672 818.975 192.873 820.395 192.324Z" fill="#D9BD2E"/>
<path d="M878.546 189.75C880.31 193.197 888.529 192.142 891.378 191.452C891.964 191.31 892.302 191.535 892.391 192.129L893.178 197.267C893.195 197.375 893.173 197.485 893.116 197.578C893.059 197.67 892.971 197.74 892.867 197.773C887.595 199.427 881.274 199.891 876.344 197.914C870.706 195.656 868.472 189.786 869.18 184.002C870.132 176.222 876.301 171.072 884.038 171.866C892.952 172.787 895.594 180.725 894.502 188.535C894.488 188.638 894.436 188.733 894.358 188.801C894.28 188.869 894.179 188.907 894.075 188.908L879.059 188.914C878.432 188.914 878.262 189.192 878.546 189.75ZM878.717 182.519L885.618 182.348C885.677 182.348 885.736 182.335 885.79 182.312C885.844 182.288 885.893 182.254 885.934 182.211C885.974 182.169 886.006 182.119 886.028 182.063C886.049 182.008 886.059 181.95 886.058 181.891L886.051 181.836C886.026 180.827 885.6 179.869 884.866 179.174C884.133 178.478 883.152 178.101 882.14 178.126H881.982C881.48 178.139 880.986 178.25 880.527 178.453C880.069 178.656 879.655 178.947 879.309 179.31C878.963 179.673 878.693 180.1 878.513 180.566C878.333 181.033 878.247 181.531 878.26 182.031V182.086C878.261 182.144 878.274 182.202 878.298 182.256C878.322 182.309 878.356 182.357 878.399 182.397C878.441 182.438 878.491 182.469 878.546 182.49C878.6 182.511 878.659 182.521 878.717 182.519Z" fill="#D9BD2E"/>
<path d="M907.51 176.088C907.628 176.654 907.832 176.688 908.12 176.192C909.975 173.023 912.514 171.565 915.735 171.817C915.977 171.835 916.202 171.943 916.368 172.119C916.534 172.295 916.628 172.527 916.632 172.769L916.76 180.506C916.761 180.557 916.75 180.607 916.73 180.654C916.709 180.7 916.679 180.741 916.642 180.775C916.604 180.809 916.56 180.834 916.512 180.848C916.464 180.863 916.413 180.867 916.364 180.86C913.014 180.384 908.871 181.189 908.846 185.424C908.822 189.487 908.81 193.799 908.81 198.359C908.81 198.437 908.779 198.512 908.724 198.566C908.669 198.621 908.595 198.652 908.517 198.652L899.377 198.744C899.218 198.744 899.139 198.664 899.139 198.506L899.047 172.738C899.047 172.692 899.056 172.646 899.074 172.604C899.092 172.561 899.118 172.523 899.151 172.49C899.184 172.458 899.223 172.432 899.266 172.415C899.309 172.398 899.355 172.39 899.401 172.391L906.558 172.439C906.669 172.44 906.778 172.463 906.879 172.508C906.98 172.553 907.07 172.619 907.145 172.701C907.219 172.782 907.276 172.879 907.312 172.984C907.347 173.09 907.361 173.201 907.352 173.312C907.27 174.28 907.323 175.205 907.51 176.088Z" fill="#D9BD2E"/>
</g>
<defs>
<clipPath id="clip0_209_2">
<rect width="917" height="200" fill="white"/>
</clipPath>
</defs>
</svg>
